<svg xmlns="http://www.w3.org/2000/svg" xmlns:xlink="http://www.w3.org/1999/xlink" width="321" zoomAndPan="magnify" viewBox="0 0 321 320.8" height="320.8" preserveAspectRatio="xMidYMid meet" version="1.0">
    <defs>
        <clipPath id="4e3ce4f4a6">
        <path d="M 559.621094 243 L 880.621094 243 L 880.621094 564 L 559.621094 564 Z M 559.621094 243 " clip-rule="nonzero"/>
        </clipPath>
    </defs> 
    <g clip-path="url(#4e3ce4f4a6)" transform="matrix(1, 0, 0, 1, -559.621094, -243)">
        <path fill="#000000" d="M 681.996094 504.4375 C 689.628906 506.199219 694.589844 512.109375 695.277344 520.523438 C 695.464844 522.792969 697.074219 524.59375 699.308594 525.03125 C 709.261719 526.972656 715.003906 535.886719 713.378906 545.121094 C 713.183594 546.21875 712.992188 546.984375 712.796875 547.550781 C 711.933594 550.042969 713.136719 552.765625 715.5625 553.800781 C 721.578125 556.367188 729.226562 559.777344 733.542969 561.535156 C 742.882812 565.335938 757.332031 553.613281 745.1875 546.847656 L 725.796875 537.402344 C 720.765625 536.015625 721.007812 529.6875 727.367188 531.097656 C 730.089844 531.710938 732.984375 533.753906 735.582031 535.074219 C 742.484375 538.570312 748.351562 542.019531 754.152344 544.875 C 768.191406 551.789062 780.15625 536.492188 769.191406 530.132812 C 764.113281 527.179688 757.554688 523.566406 753.925781 521.492188 C 750.445312 519.5 746.816406 517.480469 743.347656 515.382812 C 739.933594 513.316406 733.671875 511.484375 736.40625 507.136719 C 739.164062 504.175781 746.511719 510.253906 752.359375 513.539062 C 757.28125 516.292969 770.796875 523.386719 775.859375 526.292969 C 789.757812 534.832031 802.851562 523.316406 790.183594 511.847656 C 788.398438 509.894531 752.53125 488.445312 748.332031 486.535156 C 743.449219 482.621094 748.632812 478.292969 752.175781 480.636719 L 804.132812 514.945312 C 816.222656 519.847656 827.636719 505.605469 818.105469 496.53125 C 791.796875 476.339844 764.664062 455.050781 734.375 438.710938 C 729.191406 435.753906 720.570312 430.824219 717.671875 429.9375 C 706.316406 426.46875 693.097656 447.949219 685.898438 453.863281 C 675.25 459.652344 661.75 456.289062 657.34375 449.132812 C 652.976562 442.039062 663.066406 429.085938 670.234375 419.675781 C 671.332031 418.234375 671.574219 416.453125 670.898438 414.769531 C 670.214844 413.085938 668.808594 411.96875 667.015625 411.691406 C 664.085938 411.238281 661.140625 410.777344 658.191406 410.042969 C 653.722656 408.9375 651.277344 407.308594 648.742188 405.765625 C 647.558594 405.046875 646.285156 404.851562 644.941406 405.179688 C 643.597656 405.507812 642.558594 406.269531 641.839844 407.453125 C 634.394531 419.78125 613.667969 456.792969 607.800781 468.328125 C 606.820312 470.25 607.144531 472.472656 608.628906 474.039062 C 611.5625 477.136719 613.988281 480.425781 616.550781 483.738281 C 617.34375 484.769531 618.785156 485.019531 619.882812 484.320312 C 629.097656 478.445312 640.320312 478.5 646.570312 488.984375 C 647.015625 489.738281 647.757812 490.175781 648.640625 490.207031 C 649.519531 490.238281 650.289062 489.847656 650.789062 489.125 L 652.332031 486.886719 C 661.15625 477.792969 677.699219 485.355469 678.113281 499.695312 C 678.179688 502.003906 679.746094 503.914062 681.996094 504.4375 Z M 700.429688 278.816406 C 700.375 279.261719 700.378906 279.683594 700.679688 280.023438 C 700.980469 280.359375 701.402344 280.414062 701.851562 280.417969 L 712.890625 280.535156 C 714.707031 281.757812 717.804688 283.882812 720.121094 283.882812 C 722.441406 283.882812 725.535156 281.757812 727.347656 280.535156 L 738.386719 280.417969 C 738.84375 280.414062 739.257812 280.359375 739.558594 280.023438 C 739.863281 279.683594 739.867188 279.261719 739.816406 278.816406 C 738.933594 271.292969 736.261719 261.300781 734.027344 255.230469 C 731.726562 248.949219 726.699219 246.003906 720.121094 246.003906 C 713.542969 246.003906 708.515625 248.949219 706.210938 255.230469 C 703.980469 261.300781 701.304688 271.292969 700.429688 278.816406 Z M 696.886719 375.824219 L 696.183594 371.261719 L 695.519531 367.078125 C 689.972656 367.460938 684.800781 365.347656 685.496094 358.5 L 692.449219 300.71875 C 693.347656 295.535156 696.640625 292.511719 700.21875 291.007812 L 706.757812 288.554688 C 708.253906 287.953125 709.222656 288.132812 710.375 289.644531 L 719.523438 300.433594 C 719.828125 300.789062 720.410156 300.789062 720.71875 300.433594 L 729.867188 289.644531 C 731.019531 288.132812 731.988281 287.953125 733.480469 288.554688 L 740.023438 291.007812 C 743.601562 292.511719 746.894531 295.535156 747.792969 300.71875 L 754.742188 358.5 C 755.441406 365.347656 750.273438 367.460938 744.722656 367.078125 L 744.058594 371.261719 L 743.460938 375.140625 C 743.242188 376.566406 742.523438 377.707031 741.332031 378.519531 C 740.140625 379.332031 738.816406 379.582031 737.410156 379.273438 C 725.742188 376.660156 714.621094 376.855469 703.128906 379.902344 C 701.703125 380.285156 700.328125 380.0625 699.09375 379.257812 C 697.859375 378.449219 697.109375 377.28125 696.886719 375.824219 Z M 627.375 243.09375 C 635.878906 243.09375 642.765625 249.972656 642.765625 258.472656 C 642.765625 266.96875 637.296875 280.117188 627.375 280.117188 C 617.449219 280.117188 611.984375 266.96875 611.984375 258.472656 C 611.984375 249.972656 618.871094 243.09375 627.375 243.09375 Z M 638.308594 285.28125 L 651.777344 290.339844 C 656.835938 292.261719 660.277344 296.40625 661.191406 301.667969 L 665.140625 323.828125 C 666.050781 328.886719 665.847656 333.339844 664.53125 338.296875 L 656.738281 367.128906 C 655.824219 370.464844 652.992188 372.691406 649.546875 372.691406 L 648.636719 372.691406 L 648.070312 382.410156 C 647.964844 384.222656 646.992188 385.726562 645.382812 386.5625 C 643.777344 387.402344 641.980469 387.339844 640.4375 386.390625 L 597.492188 359.992188 C 596.363281 359.296875 595.628906 358.3125 595.28125 357.03125 L 590.214844 338.296875 C 588.894531 333.339844 588.695312 328.886719 589.609375 323.828125 L 593.554688 301.667969 C 594.464844 296.414062 597.910156 292.261719 602.96875 290.339844 L 616.4375 285.28125 C 617.957031 284.675781 619.269531 284.675781 620.789062 284.976562 L 625.652344 286.089844 C 626.863281 286.394531 627.878906 286.394531 629.089844 286.089844 L 633.953125 284.976562 C 635.472656 284.675781 636.785156 284.675781 638.304688 285.28125 Z M 632.234375 291.957031 C 631.121094 292.164062 629.503906 292.363281 627.578125 292.363281 C 625.449219 292.363281 623.628906 292.164062 622.617188 291.757812 C 621.28125 291.757812 622.847656 294.121094 623.121094 294.488281 L 624.742188 296.613281 L 621.804688 337.589844 C 621.703125 338.601562 621.910156 339.609375 622.515625 340.519531 L 626.058594 344.769531 C 626.363281 345.277344 626.871094 345.476562 627.371094 345.476562 C 627.882812 345.476562 628.390625 345.273438 628.691406 344.769531 L 632.230469 340.519531 C 632.84375 339.609375 633.042969 338.601562 632.945312 337.589844 L 630.003906 296.613281 L 631.625 294.488281 C 633.351562 292.472656 632.488281 291.890625 632.234375 291.957031 Z M 871.070312 466.355469 L 852.445312 477.796875 C 851.253906 478.535156 849.953125 478.734375 848.589844 478.390625 C 847.226562 478.042969 846.175781 477.246094 845.476562 476.035156 L 803.089844 402.511719 C 801.738281 400.160156 802.496094 397.160156 804.808594 395.742188 L 872.976562 353.835938 C 874.566406 352.859375 876.421875 352.820312 878.050781 353.730469 C 879.683594 354.640625 880.621094 356.242188 880.621094 358.105469 L 880.621094 449.28125 C 880.621094 456.445312 877.175781 462.601562 871.070312 466.355469 Z M 812.867188 243.09375 C 821.375 243.09375 828.261719 249.972656 828.261719 258.472656 C 828.261719 266.96875 822.792969 280.117188 812.867188 280.117188 C 802.949219 280.117188 797.480469 266.96875 797.480469 258.472656 C 797.480469 249.972656 804.363281 243.09375 812.867188 243.09375 Z M 823.804688 285.28125 L 837.269531 290.339844 C 842.332031 292.261719 845.777344 296.40625 846.683594 301.667969 L 850.632812 323.828125 C 851.542969 328.886719 851.34375 333.339844 850.023438 338.296875 L 845.570312 354.769531 C 845.226562 356.050781 844.492188 357.035156 843.359375 357.730469 L 799.691406 384.570312 C 798.148438 385.523438 796.351562 385.585938 794.742188 384.746094 C 793.136719 383.90625 792.160156 382.40625 792.058594 380.589844 L 791.609375 372.691406 L 790.695312 372.691406 C 787.253906 372.691406 784.414062 370.464844 783.507812 367.128906 L 775.707031 338.296875 C 774.394531 333.339844 774.1875 328.886719 775.101562 323.828125 L 779.046875 301.667969 C 779.960938 296.414062 783.402344 292.261719 788.460938 290.339844 L 801.929688 285.28125 C 803.449219 284.675781 804.761719 284.675781 806.285156 284.976562 L 811.144531 286.089844 C 812.355469 286.394531 813.371094 286.394531 814.589844 286.089844 L 819.445312 284.976562 C 820.964844 284.675781 822.285156 284.675781 823.796875 285.28125 Z M 817.730469 291.957031 C 816.617188 292.164062 814.996094 292.363281 813.074219 292.363281 C 810.949219 292.363281 809.121094 292.164062 808.109375 291.757812 C 806.78125 291.757812 808.339844 294.121094 808.617188 294.488281 L 810.234375 296.613281 L 807.300781 337.589844 C 807.203125 338.601562 807.402344 339.609375 808.007812 340.519531 L 811.554688 344.769531 C 811.855469 345.277344 812.363281 345.476562 812.867188 345.476562 C 813.375 345.476562 813.882812 345.273438 814.1875 344.769531 L 817.730469 340.519531 C 818.335938 339.609375 818.542969 338.601562 818.4375 337.589844 L 815.503906 296.613281 L 817.121094 294.488281 C 817.730469 293.78125 818.335938 292.96875 818.136719 292.164062 C 818.117188 292.078125 817.988281 291.886719 817.730469 291.957031 Z M 626.878906 487.046875 C 623.292969 488.292969 615.875 498.347656 615.660156 502.417969 C 615.296875 509.257812 622.390625 516.265625 629.582031 513.804688 C 632.195312 512.90625 641.628906 501.472656 641.867188 497.25 C 642.273438 489.917969 634.308594 482.964844 626.878906 487.046875 Z M 689.144531 535.234375 L 679.609375 548.796875 C 673.902344 560.671875 686.363281 566.90625 694.023438 562.347656 C 695.8125 561.28125 706.0625 547.832031 707.050781 545.136719 C 710.554688 535.621094 696.738281 524.441406 689.144531 535.234375 Z M 674.8125 511.085938 C 670.863281 513.210938 660.164062 529.734375 657.234375 533.761719 C 648.726562 545.433594 663.070312 554.488281 670.519531 549.160156 C 672.9375 547.78125 683.550781 532.46875 686.414062 528.542969 C 694.535156 517.421875 682.9375 506.710938 674.8125 511.085938 Z M 658.167969 489.65625 C 654.234375 491.339844 638.960938 512.378906 634.738281 518.675781 C 627.054688 530.121094 640.246094 540.988281 649.398438 533.886719 C 652.644531 531.34375 663.339844 514.789062 666.324219 510.839844 C 669.125 507.132812 673.765625 502.921875 671.167969 496.316406 C 669.507812 492.085938 663.652344 487.296875 658.167969 489.65625 Z M 817.914062 484.359375 C 821.941406 480.921875 827.859375 475.417969 831.371094 471.878906 C 832.964844 470.265625 833.292969 467.886719 832.183594 465.910156 L 806.152344 419.316406 C 804.070312 415.808594 800.695312 410.375 798.46875 406.039062 C 797.425781 404.015625 795.25 402.96875 793.015625 403.417969 C 759.757812 410.121094 741.90625 380.785156 703.808594 392.386719 C 694.601562 395.1875 669.195312 428.289062 662.980469 441.929688 C 662.007812 444.0625 662.609375 446.515625 664.460938 447.957031 C 688.65625 466.851562 692.960938 409.59375 727.398438 428.171875 C 759.238281 445.351562 783.386719 462.253906 811.542969 484.480469 C 813.445312 485.976562 816.074219 485.925781 817.914062 484.359375 Z M 559.621094 451.160156 L 559.621094 359.992188 C 559.621094 358.128906 560.558594 356.523438 562.1875 355.617188 C 563.816406 354.710938 565.675781 354.746094 567.265625 355.722656 L 635.429688 397.625 C 637.742188 399.046875 638.5 402.050781 637.152344 404.394531 L 594.765625 477.917969 C 594.0625 479.136719 593.015625 479.929688 591.648438 480.273438 C 590.285156 480.621094 588.988281 480.417969 587.792969 479.683594 L 569.167969 468.234375 C 563.066406 464.480469 559.621094 458.328125 559.621094 451.160156 Z M 559.621094 451.160156 " fill-opacity="1" fill-rule="evenodd"/>
    </g>
</svg>