<svg xmlns="http://www.w3.org/2000/svg" xmlns:xlink="http://www.w3.org/1999/xlink" width="1920" zoomAndPan="magnify" viewBox="0 0 1440 809.999993" height="1080" preserveAspectRatio="xMidYMid meet" version="1.0"><defs><clipPath id="a23edea3f3"><path d="M 567.113281 243 L 873.113281 243 L 873.113281 567 L 567.113281 567 Z M 567.113281 243 " clip-rule="nonzero"/></clipPath></defs><g clip-path="url(#a23edea3f3)"><path fill="#ffffff" d="M 659.234375 566.929688 C 646.761719 566.929688 633.65625 562.816406 622.007812 555.289062 L 599.148438 555.289062 C 593.832031 555.289062 589.527344 550.988281 589.527344 545.671875 L 589.527344 520.238281 C 588.703125 518.59375 587.941406 517.011719 587.308594 515.367188 C 572.875 480.253906 579.964844 458.175781 589.527344 445.269531 L 589.527344 389.152344 C 586.488281 386.683594 583.699219 383.902344 581.230469 380.863281 C 571.988281 369.664062 567.113281 355.558594 567.492188 341.070312 C 567.808594 327.71875 572.683594 314.6875 581.042969 304.4375 C 583.511719 301.402344 586.296875 298.617188 589.335938 296.085938 C 600.097656 287.230469 613.710938 282.359375 627.640625 282.359375 C 629.414062 282.359375 631.25 282.421875 633.023438 282.613281 C 659.617188 257.050781 694.3125 243.007812 731.351562 243.007812 C 769.214844 243.007812 804.796875 257.746094 831.640625 284.507812 C 836.832031 289.699219 841.582031 295.265625 845.824219 301.148438 C 849.621094 306.273438 853.105469 311.777344 856.144531 317.472656 C 862.476562 329.238281 867.097656 341.765625 869.882812 354.671875 C 870.644531 358.277344 871.339844 361.949219 871.847656 365.679688 C 871.847656 365.742188 871.847656 365.804688 871.847656 365.804688 C 872.667969 372.070312 873.113281 378.460938 873.113281 384.785156 L 873.113281 545.734375 C 873.113281 551.050781 868.808594 555.351562 863.488281 555.351562 L 689.941406 555.351562 C 680.890625 562.878906 670.886719 566.804688 660.25 566.992188 C 659.933594 566.929688 659.550781 566.929688 659.234375 566.929688 Z M 659.234375 566.929688 " fill-opacity="1" fill-rule="nonzero"/></g><path fill="#9193eb" d="M 864.5 384.722656 L 864.5 448.558594 L 863.742188 449.570312 L 864.5 450.203125 L 864.5 545.671875 L 600.035156 545.671875 L 600.035156 384.722656 C 600.035156 311.777344 659.234375 252.625 732.238281 252.625 C 768.769531 252.625 801.757812 267.425781 825.753906 291.34375 C 830.566406 296.152344 834.996094 301.339844 838.984375 306.777344 L 848.609375 321.964844 C 854.433594 332.71875 858.804688 344.359375 861.398438 356.570312 C 863.425781 365.679688 864.5 375.105469 864.5 384.722656 Z M 864.5 384.722656 " fill-opacity="1" fill-rule="nonzero"/><path fill="#ffd82a" d="M 715.902344 273.121094 L 718.371094 257.496094 L 720.714844 272.617188 L 737.050781 271.792969 L 724.957031 276.855469 L 728.628906 291.785156 L 719.066406 278.183594 L 710.015625 292.355469 L 713.371094 277.171875 L 697.730469 275.082031 Z M 715.902344 273.121094 " fill-opacity="1" fill-rule="nonzero"/><path fill="#ffd82a" d="M 743.0625 508.726562 L 743.761719 492.972656 L 747.75 507.710938 L 763.894531 505.054688 L 752.496094 511.445312 L 757.878906 525.871094 L 746.734375 513.46875 L 739.390625 528.527344 L 741.039062 513.089844 L 725.273438 512.773438 Z M 743.0625 508.726562 " fill-opacity="1" fill-rule="nonzero"/><path fill="#ffd82a" d="M 738.503906 392.0625 L 744.140625 382.003906 L 741.859375 392.949219 L 753.320312 396.492188 L 743.761719 396.933594 L 742.496094 408.132812 L 739.328125 396.363281 L 729.578125 403.828125 L 735.71875 394.277344 L 725.527344 388.898438 Z M 738.503906 392.0625 " fill-opacity="1" fill-rule="nonzero"/><path fill="#ffd82a" d="M 841.328125 420.34375 L 831.386719 408.070312 L 844.175781 416.417969 L 854.496094 403.765625 L 850.191406 416.101562 L 863.742188 423.378906 L 847.214844 421.417969 L 851.710938 437.613281 L 842.722656 424.898438 L 830.691406 435.144531 Z M 841.328125 420.34375 " fill-opacity="1" fill-rule="nonzero"/><path fill="#ffd82a" d="M 851.140625 330.945312 L 842.152344 318.292969 L 830.121094 328.480469 L 840.820312 313.675781 L 830.882812 301.402344 L 839.050781 306.777344 C 842.59375 311.585938 845.824219 316.710938 848.671875 321.964844 Z M 851.140625 330.945312 " fill-opacity="1" fill-rule="nonzero"/><path fill="#f77a2b" d="M 755.789062 448.9375 C 752.941406 441.410156 747.621094 434.894531 740.46875 431.160156 C 725.460938 423.378906 707.796875 428.125 693.234375 434.449219 C 680.003906 440.144531 669.429688 442.929688 655.054688 438.941406 C 626.3125 430.90625 575.535156 452.101562 602.0625 516.695312 C 611.242188 539.15625 636.253906 557.757812 660.945312 557.3125 C 677.28125 556.996094 688.804688 545.800781 697.792969 533.273438 C 706.59375 521 710.773438 512.519531 722.359375 502.839844 C 733.1875 493.792969 750.976562 497.210938 756.675781 470.132812 C 758.132812 463.046875 758.386719 455.707031 755.789062 448.9375 Z M 755.789062 448.9375 " fill-opacity="1" fill-rule="nonzero"/><path fill="#ffd82a" d="M 750.851562 443.941406 C 748.003906 436.410156 742.683594 429.894531 735.53125 426.164062 C 720.523438 418.378906 702.859375 423.125 688.296875 429.453125 C 675.0625 435.144531 664.492188 437.929688 650.117188 433.945312 C 621.375 425.972656 570.59375 447.167969 597.125 511.699219 C 606.304688 534.15625 631.3125 552.757812 656.007812 552.316406 C 672.339844 552 683.863281 540.800781 692.855469 528.273438 C 701.65625 516 712.355469 505.246094 723.941406 495.566406 C 734.769531 486.519531 747.179688 479.433594 751.675781 465.132812 C 753.828125 458.300781 753.382812 450.710938 750.851562 443.941406 Z M 750.851562 443.941406 " fill-opacity="1" fill-rule="nonzero"/><path fill="#511815" d="M 710.332031 467.980469 C 710.332031 468.761719 710.292969 469.542969 710.214844 470.320312 C 710.140625 471.097656 710.023438 471.867188 709.871094 472.632812 C 709.71875 473.402344 709.53125 474.15625 709.300781 474.90625 C 709.074219 475.652344 708.8125 476.386719 708.511719 477.109375 C 708.214844 477.832031 707.878906 478.535156 707.511719 479.226562 C 707.144531 479.914062 706.742188 480.582031 706.308594 481.234375 C 705.875 481.882812 705.40625 482.507812 704.914062 483.113281 C 704.417969 483.714844 703.890625 484.292969 703.339844 484.847656 C 702.785156 485.398438 702.207031 485.921875 701.601562 486.417969 C 701 486.914062 700.371094 487.378906 699.722656 487.8125 C 699.070312 488.246094 698.402344 488.648438 697.710938 489.015625 C 697.023438 489.386719 696.316406 489.71875 695.59375 490.015625 C 694.871094 490.316406 694.136719 490.578125 693.390625 490.804688 C 692.640625 491.03125 691.882812 491.222656 691.117188 491.375 C 690.351562 491.527344 689.578125 491.640625 688.800781 491.71875 C 688.023438 491.792969 687.242188 491.832031 686.460938 491.832031 C 685.679688 491.832031 684.898438 491.792969 684.121094 491.71875 C 683.34375 491.640625 682.570312 491.527344 681.804688 491.375 C 681.039062 491.222656 680.28125 491.03125 679.53125 490.804688 C 678.785156 490.578125 678.046875 490.316406 677.324219 490.015625 C 676.605469 489.71875 675.898438 489.382812 675.207031 489.015625 C 674.519531 488.648438 673.847656 488.246094 673.199219 487.8125 C 672.550781 487.378906 671.921875 486.914062 671.316406 486.417969 C 670.714844 485.921875 670.136719 485.398438 669.582031 484.847656 C 669.03125 484.292969 668.503906 483.714844 668.007812 483.113281 C 667.511719 482.507812 667.046875 481.882812 666.613281 481.234375 C 666.179688 480.582031 665.777344 479.914062 665.410156 479.226562 C 665.042969 478.535156 664.707031 477.832031 664.40625 477.109375 C 664.109375 476.386719 663.847656 475.652344 663.617188 474.90625 C 663.390625 474.15625 663.203125 473.402344 663.050781 472.632812 C 662.898438 471.867188 662.78125 471.097656 662.707031 470.320312 C 662.628906 469.542969 662.589844 468.761719 662.589844 467.980469 C 662.589844 467.199219 662.628906 466.421875 662.707031 465.644531 C 662.78125 464.867188 662.898438 464.09375 663.050781 463.328125 C 663.203125 462.5625 663.390625 461.804688 663.617188 461.058594 C 663.847656 460.308594 664.109375 459.574219 664.40625 458.855469 C 664.707031 458.132812 665.042969 457.425781 665.410156 456.738281 C 665.777344 456.050781 666.179688 455.378906 666.613281 454.730469 C 667.046875 454.082031 667.511719 453.453125 668.007812 452.851562 C 668.503906 452.246094 669.03125 451.667969 669.582031 451.117188 C 670.136719 450.5625 670.714844 450.039062 671.316406 449.542969 C 671.921875 449.046875 672.550781 448.582031 673.199219 448.148438 C 673.847656 447.714844 674.519531 447.316406 675.207031 446.945312 C 675.898438 446.578125 676.605469 446.246094 677.328125 445.945312 C 678.046875 445.648438 678.785156 445.382812 679.53125 445.15625 C 680.28125 444.929688 681.039062 444.742188 681.804688 444.589844 C 682.570312 444.4375 683.34375 444.320312 684.121094 444.246094 C 684.898438 444.167969 685.679688 444.128906 686.460938 444.128906 C 687.242188 444.128906 688.023438 444.167969 688.800781 444.246094 C 689.578125 444.320312 690.351562 444.4375 691.117188 444.589844 C 691.882812 444.742188 692.640625 444.929688 693.390625 445.15625 C 694.136719 445.382812 694.871094 445.648438 695.59375 445.945312 C 696.316406 446.246094 697.023438 446.578125 697.710938 446.945312 C 698.402344 447.316406 699.070312 447.714844 699.722656 448.148438 C 700.371094 448.582031 701 449.046875 701.601562 449.542969 C 702.207031 450.039062 702.785156 450.5625 703.339844 451.117188 C 703.890625 451.667969 704.417969 452.246094 704.914062 452.851562 C 705.40625 453.453125 705.875 454.082031 706.308594 454.730469 C 706.742188 455.378906 707.144531 456.050781 707.511719 456.738281 C 707.878906 457.425781 708.214844 458.132812 708.511719 458.855469 C 708.8125 459.574219 709.074219 460.308594 709.300781 461.058594 C 709.53125 461.804688 709.71875 462.5625 709.871094 463.328125 C 710.023438 464.09375 710.140625 464.867188 710.214844 465.644531 C 710.292969 466.421875 710.332031 467.199219 710.332031 467.980469 Z M 710.332031 467.980469 " fill-opacity="1" fill-rule="nonzero"/><path fill="#511815" d="M 617.699219 475.195312 L 638.339844 516.0625 L 651.511719 508.535156 L 627.640625 470.007812 Z M 617.699219 475.195312 " fill-opacity="1" fill-rule="nonzero"/><path fill="#f77a2b" d="M 859.375 402.058594 L 726.222656 464.816406 L 725.273438 462.351562 L 725.019531 461.589844 L 723.183594 456.71875 L 722.929688 455.960938 L 720.652344 449.824219 L 720.335938 449 L 718.179688 443.308594 L 717.929688 442.484375 L 717.042969 440.207031 L 850.636719 380.230469 L 851.394531 382.066406 L 851.648438 382.824219 L 853.929688 388.519531 L 854.246094 389.277344 L 856.714844 395.351562 L 856.96875 396.109375 L 858.359375 399.527344 L 858.675781 400.285156 Z M 859.375 402.058594 " fill-opacity="1" fill-rule="nonzero"/><path fill="#511815" d="M 851.648438 382.824219 L 718.179688 443.308594 L 628.148438 484.050781 L 627.832031 483.292969 L 717.929688 442.484375 L 851.394531 382.066406 Z M 851.648438 382.824219 " fill-opacity="1" fill-rule="nonzero"/><path fill="#511815" d="M 854.246094 389.277344 L 720.652344 449.824219 L 628.273438 491.578125 L 627.957031 490.882812 L 720.335938 449 L 853.929688 388.519531 Z M 854.246094 389.277344 " fill-opacity="1" fill-rule="nonzero"/><path fill="#511815" d="M 856.96875 396.109375 L 723.183594 456.71875 L 633.148438 497.464844 L 632.832031 496.703125 L 722.929688 455.960938 L 856.714844 395.351562 Z M 856.96875 396.109375 " fill-opacity="1" fill-rule="nonzero"/><path fill="#511815" d="M 858.675781 400.285156 L 725.273438 462.351562 L 634.480469 504.613281 L 634.164062 503.851562 L 725.019531 461.589844 L 858.359375 399.527344 Z M 858.675781 400.285156 " fill-opacity="1" fill-rule="nonzero"/><path fill="#511815" d="M 863.296875 367.007812 L 857.09375 369.730469 L 850.636719 380.230469 L 851.394531 382.066406 L 851.710938 382.824219 L 852.28125 384.28125 L 852.789062 385.480469 L 853.992188 388.519531 L 854.308594 389.277344 L 856.714844 395.351562 L 857.03125 396.109375 L 858.421875 399.527344 L 858.738281 400.285156 L 859.4375 402.058594 L 864.566406 403.261719 L 864.882812 392.757812 C 865.070312 384.152344 864.566406 375.550781 863.296875 367.007812 Z M 863.296875 367.007812 " fill-opacity="1" fill-rule="nonzero"/><path fill="#ffffff" d="M 833.539062 450.773438 C 826.703125 449.445312 822.144531 447.039062 819.484375 443.371094 C 816.191406 438.816406 816.320312 432.679688 817.015625 428.441406 C 817.457031 425.78125 818.15625 423.125 818.914062 420.53125 C 819.613281 418 820.308594 415.40625 820.75 412.75 C 822.777344 401.171875 819.675781 389.023438 812.773438 379.410156 C 811.445312 377.574219 809.988281 375.800781 808.40625 374.15625 C 806.820312 372.511719 805.175781 370.996094 803.339844 369.664062 C 802.832031 369.285156 802.328125 368.90625 801.820312 368.527344 C 801.757812 368.464844 801.757812 368.464844 801.695312 368.402344 C 798.402344 366.121094 794.855469 364.289062 791.054688 362.894531 C 790.675781 362.769531 790.359375 362.644531 789.980469 362.515625 C 784.09375 360.492188 777.695312 359.605469 771.367188 359.859375 C 768.960938 359.984375 766.492188 360.238281 764.085938 360.683594 C 760.347656 361.378906 756.675781 362.515625 753.132812 364.035156 C 752.6875 364.226562 752.308594 364.414062 751.863281 364.605469 C 748.320312 366.25 744.964844 368.273438 741.671875 370.234375 C 738.695312 372.007812 735.59375 373.90625 732.425781 375.421875 C 723.308594 379.914062 713.75 381.6875 704.820312 380.675781 C 694.945312 379.535156 686.082031 374.789062 680.507812 367.703125 C 673.226562 358.46875 671.582031 344.738281 676.457031 333.476562 C 680.445312 324.429688 688.359375 317.089844 697.921875 313.359375 C 698.492188 317.914062 700.261719 322.34375 703.683594 325.757812 C 706.722656 328.859375 710.582031 330.503906 714.382812 330.441406 C 718.6875 330.3125 722.613281 327.65625 723.941406 323.925781 C 725.714844 318.800781 722.296875 313.359375 717.992188 311.144531 C 714.191406 309.183594 709.316406 308.804688 703.492188 310.070312 C 702.097656 310.386719 700.769531 310.765625 699.375 311.207031 C 699.1875 306.527344 700.199219 301.84375 701.972656 298.046875 C 706.785156 287.546875 717.167969 280.207031 727.804688 279.828125 C 738.0625 279.449219 748.003906 286.15625 751.296875 295.136719 C 751.613281 296.023438 751.863281 296.972656 752.054688 297.921875 L 753.636719 297.605469 C 753.449219 296.53125 753.132812 295.453125 752.75 294.441406 C 749.207031 284.824219 738.632812 277.804688 727.742188 278.121094 C 716.535156 278.5 705.644531 286.21875 700.515625 297.226562 C 698.617188 301.402344 697.476562 306.527344 697.792969 311.652344 C 687.664062 315.445312 679.242188 323.226562 675.0625 332.78125 C 669.9375 344.550781 671.644531 358.972656 679.304688 368.652344 C 685.195312 376.054688 694.4375 380.992188 704.695312 382.191406 C 713.9375 383.269531 723.753906 381.371094 733.1875 376.816406 C 736.414062 375.234375 739.519531 373.398438 742.558594 371.5625 C 745.785156 369.601562 749.140625 367.640625 752.5625 365.996094 C 753.003906 365.804688 753.382812 365.617188 753.765625 365.425781 C 757.308594 363.84375 760.980469 362.769531 764.78125 362.074219 C 767.1875 361.632812 769.65625 361.378906 772.0625 361.316406 C 777.445312 361.125 782.824219 361.820312 787.890625 363.339844 C 788.269531 363.464844 788.585938 363.59375 788.96875 363.71875 C 793.144531 365.109375 797.136719 367.007812 800.742188 369.539062 C 802.894531 371.058594 804.984375 372.765625 806.820312 374.664062 C 808.46875 376.308594 809.925781 378.015625 811.253906 379.914062 C 818.027344 389.277344 821.066406 401.109375 819.167969 412.371094 C 818.726562 414.964844 818.027344 417.496094 817.332031 420.027344 C 816.636719 422.683594 815.875 425.402344 815.433594 428.125 C 814.671875 432.742188 814.546875 439.257812 818.15625 444.257812 C 821.066406 448.242188 826.007812 450.898438 833.222656 452.292969 C 836.960938 453.050781 840.820312 453.367188 844.621094 453.367188 C 851.332031 453.367188 858.042969 452.292969 864.4375 450.140625 L 864.4375 448.433594 C 854.625 451.910156 843.859375 452.796875 833.539062 450.773438 Z M 703.871094 311.714844 C 709.316406 310.511719 713.8125 310.828125 717.296875 312.664062 C 720.96875 314.5625 724.007812 319.304688 722.550781 323.542969 C 721.472656 326.644531 718.117188 328.921875 714.445312 328.984375 C 711.152344 329.050781 707.671875 327.53125 704.949219 324.808594 C 701.71875 321.519531 700.074219 317.34375 699.566406 312.980469 C 700.960938 312.410156 702.417969 312.03125 703.871094 311.714844 Z M 703.871094 311.714844 " fill-opacity="1" fill-rule="nonzero"/><path fill="#ff9172" d="M 840.0625 367.703125 L 779.535156 393.644531 L 767.375 398.832031 L 725.84375 306.589844 L 736.734375 301.71875 L 796.816406 274.894531 Z M 840.0625 367.703125 " fill-opacity="1" fill-rule="nonzero"/><path fill="#a53aff" d="M 779.535156 393.644531 L 767.375 398.832031 L 725.84375 306.589844 L 736.734375 301.71875 Z M 779.535156 393.644531 " fill-opacity="1" fill-rule="nonzero"/><path fill="#ffffff" d="M 745.46875 303.171875 L 783.140625 385.417969 L 833.160156 363.085938 L 793.90625 280.398438 Z M 745.46875 303.171875 " fill-opacity="1" fill-rule="nonzero"/><path fill="#ff9a55" d="M 784.789062 292.226562 C 785.421875 293.554688 784.914062 295.203125 783.585938 295.835938 C 782.257812 296.46875 780.609375 295.960938 779.976562 294.632812 C 779.34375 293.304688 779.851562 291.660156 781.179688 291.027344 C 782.507812 290.394531 784.15625 290.898438 784.789062 292.226562 Z M 784.789062 292.226562 " fill-opacity="1" fill-rule="nonzero"/><path fill="#ffd82a" d="M 793.082031 288.117188 C 793.714844 289.445312 793.210938 291.089844 791.878906 291.722656 C 790.550781 292.355469 788.902344 291.847656 788.269531 290.519531 C 787.636719 289.191406 788.144531 287.546875 789.472656 286.914062 C 790.804688 286.28125 792.386719 286.785156 793.082031 288.117188 Z M 793.082031 288.117188 " fill-opacity="1" fill-rule="nonzero"/><path fill="#a53aff" d="M 776.875 296.152344 C 777.507812 297.480469 777 299.125 775.671875 299.757812 C 774.339844 300.390625 772.695312 299.882812 772.0625 298.554688 C 771.429688 297.226562 771.9375 295.582031 773.265625 294.949219 C 774.59375 294.316406 776.242188 294.820312 776.875 296.152344 Z M 776.875 296.152344 " fill-opacity="1" fill-rule="nonzero"/><path fill="#511815" d="M 789.03125 351.191406 C 788.777344 351.191406 788.523438 351.066406 788.398438 350.8125 L 772.316406 316.394531 C 772.125 316.078125 772.316406 315.636719 772.632812 315.511719 L 793.96875 305.386719 C 794.160156 305.324219 794.347656 305.324219 794.539062 305.386719 C 794.730469 305.449219 794.855469 305.578125 794.917969 305.765625 L 809.292969 340.691406 C 809.417969 341.070312 809.292969 341.449219 808.910156 341.574219 C 808.53125 341.703125 808.152344 341.574219 808.023438 341.195312 L 793.90625 306.96875 L 773.835938 316.394531 L 789.664062 350.179688 C 789.855469 350.496094 789.664062 350.9375 789.347656 351.066406 C 789.21875 351.191406 789.15625 351.191406 789.03125 351.191406 Z M 789.03125 351.191406 " fill-opacity="1" fill-rule="nonzero"/><path fill="#511815" d="M 776.8125 324.492188 L 798.085938 314.371094 L 794.222656 305.957031 L 772.949219 316.078125 Z M 776.8125 324.492188 " fill-opacity="1" fill-rule="nonzero"/><path fill="#511815" d="M 789.03125 348.789062 C 789.03125 348.789062 778.648438 345.183594 776.050781 349.421875 C 773.457031 353.660156 780.039062 356.695312 782.003906 356.125 C 783.964844 355.496094 790.296875 351.886719 790.296875 351.886719 Z M 789.03125 348.789062 " fill-opacity="1" fill-rule="nonzero"/><path fill="#511815" d="M 808.59375 338.730469 C 808.59375 338.730469 798.210938 335.121094 795.617188 339.359375 C 793.019531 343.601562 799.605469 346.636719 801.566406 346.066406 C 803.53125 345.5 809.859375 341.828125 809.859375 341.828125 Z M 808.59375 338.730469 " fill-opacity="1" fill-rule="nonzero"/><path fill="#a53aff" d="M 799.476562 363.210938 L 802.769531 370.488281 L 807.519531 363.910156 Z M 799.476562 363.210938 " fill-opacity="1" fill-rule="nonzero"/><path fill="#a53aff" d="M 811.886719 359.164062 L 813.976562 363.84375 L 817.015625 359.667969 Z M 811.886719 359.164062 " fill-opacity="1" fill-rule="nonzero"/><path fill="#a53aff" d="M 816.699219 357.011719 L 818.789062 361.632812 L 821.828125 357.519531 Z M 816.699219 357.011719 " fill-opacity="1" fill-rule="nonzero"/><path fill="#a53aff" d="M 787.097656 370.277344 L 791.78125 367.894531 L 794.164062 372.574219 L 789.484375 374.957031 Z M 787.097656 370.277344 " fill-opacity="1" fill-rule="nonzero"/><path fill="#a53aff" d="M 786.121094 364.390625 L 816.550781 349.960938 L 816.878906 350.648438 L 786.445312 365.074219 Z M 786.121094 364.390625 " fill-opacity="1" fill-rule="nonzero"/><path fill="#a53aff" d="M 836.960938 492.71875 C 836.960938 493.679688 836.914062 494.636719 836.820312 495.589844 C 836.722656 496.542969 836.582031 497.492188 836.394531 498.433594 C 836.210938 499.375 835.976562 500.304688 835.699219 501.222656 C 835.417969 502.140625 835.09375 503.042969 834.726562 503.929688 C 834.359375 504.816406 833.949219 505.679688 833.5 506.527344 C 833.046875 507.371094 832.554688 508.195312 832.019531 508.992188 C 831.484375 509.789062 830.914062 510.558594 830.304688 511.300781 C 829.695312 512.042969 829.050781 512.753906 828.375 513.429688 C 827.695312 514.109375 826.984375 514.753906 826.242188 515.363281 C 825.5 515.96875 824.730469 516.542969 823.929688 517.074219 C 823.132812 517.605469 822.3125 518.101562 821.464844 518.550781 C 820.617188 519.003906 819.75 519.414062 818.863281 519.78125 C 817.976562 520.148438 817.074219 520.472656 816.15625 520.75 C 815.234375 521.027344 814.304688 521.261719 813.363281 521.449219 C 812.421875 521.636719 811.472656 521.777344 810.519531 521.871094 C 809.5625 521.964844 808.605469 522.011719 807.644531 522.011719 C 806.683594 522.011719 805.726562 521.964844 804.773438 521.871094 C 803.816406 521.777344 802.867188 521.636719 801.925781 521.449219 C 800.984375 521.261719 800.054688 521.027344 799.136719 520.75 C 798.214844 520.472656 797.3125 520.148438 796.425781 519.78125 C 795.539062 519.414062 794.671875 519.003906 793.828125 518.550781 C 792.980469 518.101562 792.15625 517.605469 791.359375 517.074219 C 790.558594 516.542969 789.789062 515.96875 789.046875 515.363281 C 788.304688 514.753906 787.59375 514.109375 786.917969 513.429688 C 786.238281 512.753906 785.59375 512.042969 784.984375 511.300781 C 784.375 510.558594 783.804688 509.789062 783.269531 508.992188 C 782.738281 508.195312 782.246094 507.371094 781.792969 506.527344 C 781.339844 505.679688 780.929688 504.816406 780.5625 503.929688 C 780.195312 503.042969 779.871094 502.140625 779.59375 501.222656 C 779.3125 500.304688 779.082031 499.375 778.894531 498.433594 C 778.707031 497.492188 778.566406 496.542969 778.472656 495.589844 C 778.378906 494.636719 778.332031 493.679688 778.332031 492.71875 C 778.332031 491.757812 778.378906 490.800781 778.472656 489.847656 C 778.566406 488.894531 778.707031 487.945312 778.894531 487.003906 C 779.082031 486.0625 779.3125 485.132812 779.59375 484.214844 C 779.871094 483.296875 780.195312 482.394531 780.5625 481.507812 C 780.929688 480.621094 781.339844 479.757812 781.792969 478.910156 C 782.246094 478.0625 782.738281 477.242188 783.269531 476.445312 C 783.804688 475.648438 784.375 474.878906 784.984375 474.136719 C 785.59375 473.394531 786.238281 472.683594 786.917969 472.003906 C 787.59375 471.328125 788.304688 470.683594 789.046875 470.074219 C 789.789062 469.464844 790.558594 468.894531 791.359375 468.363281 C 792.15625 467.828125 792.980469 467.335938 793.828125 466.886719 C 794.671875 466.433594 795.539062 466.023438 796.425781 465.65625 C 797.3125 465.289062 798.214844 464.964844 799.136719 464.6875 C 800.054688 464.410156 800.984375 464.175781 801.925781 463.988281 C 802.867188 463.800781 803.816406 463.660156 804.773438 463.566406 C 805.726562 463.472656 806.683594 463.425781 807.644531 463.425781 C 808.605469 463.425781 809.5625 463.472656 810.519531 463.566406 C 811.472656 463.660156 812.421875 463.800781 813.363281 463.988281 C 814.304688 464.175781 815.234375 464.410156 816.15625 464.6875 C 817.074219 464.964844 817.976562 465.289062 818.863281 465.65625 C 819.75 466.023438 820.617188 466.433594 821.464844 466.886719 C 822.3125 467.335938 823.132812 467.828125 823.929688 468.363281 C 824.730469 468.894531 825.5 469.464844 826.242188 470.074219 C 826.984375 470.683594 827.695312 471.328125 828.375 472.003906 C 829.050781 472.683594 829.695312 473.394531 830.304688 474.136719 C 830.914062 474.878906 831.484375 475.648438 832.019531 476.445312 C 832.554688 477.242188 833.046875 478.0625 833.5 478.910156 C 833.949219 479.757812 834.359375 480.621094 834.726562 481.507812 C 835.09375 482.394531 835.417969 483.296875 835.699219 484.214844 C 835.976562 485.132812 836.210938 486.0625 836.394531 487.003906 C 836.582031 487.945312 836.722656 488.894531 836.820312 489.847656 C 836.914062 490.800781 836.960938 491.757812 836.960938 492.71875 Z M 836.960938 492.71875 " fill-opacity="1" fill-rule="nonzero"/><path fill="#ff9172" d="M 840.125 492.71875 C 840.125 493.679688 840.078125 494.636719 839.984375 495.589844 C 839.890625 496.542969 839.75 497.492188 839.5625 498.433594 C 839.375 499.375 839.140625 500.304688 838.863281 501.222656 C 838.585938 502.140625 838.261719 503.042969 837.894531 503.929688 C 837.527344 504.816406 837.117188 505.679688 836.664062 506.527344 C 836.210938 507.371094 835.71875 508.195312 835.183594 508.992188 C 834.652344 509.789062 834.082031 510.558594 833.472656 511.300781 C 832.863281 512.042969 832.21875 512.753906 831.539062 513.429688 C 830.859375 514.109375 830.148438 514.753906 829.40625 515.363281 C 828.664062 515.96875 827.894531 516.542969 827.097656 517.074219 C 826.300781 517.605469 825.476562 518.101562 824.628906 518.550781 C 823.78125 519.003906 822.917969 519.414062 822.027344 519.78125 C 821.140625 520.148438 820.238281 520.472656 819.320312 520.75 C 818.402344 521.027344 817.472656 521.261719 816.53125 521.449219 C 815.589844 521.636719 814.640625 521.777344 813.683594 521.871094 C 812.730469 521.964844 811.769531 522.011719 810.8125 522.011719 C 809.851562 522.011719 808.894531 521.964844 807.9375 521.871094 C 806.980469 521.777344 806.035156 521.636719 805.089844 521.449219 C 804.148438 521.261719 803.21875 521.027344 802.300781 520.75 C 801.382812 520.472656 800.480469 520.148438 799.59375 519.78125 C 798.707031 519.414062 797.839844 519.003906 796.992188 518.550781 C 796.144531 518.101562 795.324219 517.605469 794.523438 517.074219 C 793.726562 516.542969 792.957031 515.96875 792.214844 515.363281 C 791.472656 514.753906 790.761719 514.109375 790.082031 513.429688 C 789.402344 512.753906 788.757812 512.042969 788.148438 511.300781 C 787.542969 510.558594 786.96875 509.789062 786.4375 508.992188 C 785.902344 508.195312 785.410156 507.371094 784.957031 506.527344 C 784.503906 505.679688 784.09375 504.816406 783.726562 503.929688 C 783.359375 503.042969 783.035156 502.140625 782.757812 501.222656 C 782.480469 500.304688 782.246094 499.375 782.058594 498.433594 C 781.871094 497.492188 781.730469 496.542969 781.636719 495.589844 C 781.542969 494.636719 781.496094 493.679688 781.496094 492.71875 C 781.496094 491.757812 781.542969 490.800781 781.636719 489.847656 C 781.730469 488.894531 781.871094 487.945312 782.058594 487.003906 C 782.246094 486.0625 782.480469 485.132812 782.757812 484.214844 C 783.035156 483.296875 783.359375 482.394531 783.726562 481.507812 C 784.09375 480.621094 784.503906 479.757812 784.957031 478.910156 C 785.410156 478.0625 785.902344 477.242188 786.4375 476.445312 C 786.96875 475.648438 787.542969 474.878906 788.148438 474.136719 C 788.757812 473.394531 789.402344 472.683594 790.082031 472.003906 C 790.761719 471.328125 791.472656 470.683594 792.214844 470.074219 C 792.957031 469.464844 793.726562 468.894531 794.523438 468.363281 C 795.324219 467.828125 796.144531 467.335938 796.992188 466.886719 C 797.839844 466.433594 798.707031 466.023438 799.59375 465.65625 C 800.480469 465.289062 801.382812 464.964844 802.300781 464.6875 C 803.21875 464.410156 804.148438 464.175781 805.089844 463.988281 C 806.035156 463.800781 806.980469 463.660156 807.9375 463.566406 C 808.894531 463.472656 809.851562 463.425781 810.8125 463.425781 C 811.769531 463.425781 812.730469 463.472656 813.683594 463.566406 C 814.640625 463.660156 815.589844 463.800781 816.53125 463.988281 C 817.472656 464.175781 818.402344 464.410156 819.320312 464.6875 C 820.238281 464.964844 821.140625 465.289062 822.027344 465.65625 C 822.917969 466.023438 823.78125 466.433594 824.628906 466.886719 C 825.476562 467.335938 826.300781 467.828125 827.097656 468.363281 C 827.894531 468.894531 828.664062 469.464844 829.40625 470.074219 C 830.148438 470.683594 830.859375 471.328125 831.539062 472.003906 C 832.21875 472.683594 832.863281 473.394531 833.472656 474.136719 C 834.082031 474.878906 834.652344 475.648438 835.183594 476.445312 C 835.71875 477.242188 836.210938 478.0625 836.664062 478.910156 C 837.117188 479.757812 837.527344 480.621094 837.894531 481.507812 C 838.261719 482.394531 838.585938 483.296875 838.863281 484.214844 C 839.140625 485.132812 839.375 486.0625 839.5625 487.003906 C 839.75 487.945312 839.890625 488.894531 839.984375 489.847656 C 840.078125 490.800781 840.125 491.757812 840.125 492.71875 Z M 840.125 492.71875 " fill-opacity="1" fill-rule="nonzero"/><path fill="#ffffff" d="M 803.847656 478.167969 L 803.847656 507.269531 L 827.144531 491.578125 Z M 803.847656 478.167969 " fill-opacity="1" fill-rule="nonzero"/><path fill="#511815" d="M 667.65625 310.386719 C 685.449219 331.894531 682.34375 363.78125 660.816406 381.558594 C 639.292969 399.335938 607.378906 396.300781 589.589844 374.726562 C 581.546875 364.921875 577.75 353.089844 578.003906 341.324219 C 578.320312 330.3125 582.117188 319.433594 589.398438 310.574219 C 591.425781 308.042969 593.769531 305.703125 596.363281 303.550781 C 617.953125 285.773438 649.863281 288.8125 667.65625 310.386719 Z M 667.65625 310.386719 " fill-opacity="1" fill-rule="nonzero"/><path fill="#ffffff" d="M 622.894531 340.375 L 578.003906 341.257812 C 578.320312 330.25 582.117188 319.371094 589.398438 310.511719 Z M 622.894531 340.375 " fill-opacity="0.16" fill-rule="nonzero"/><path fill="#ff9172" d="M 646.953125 341.640625 C 646.953125 342.28125 646.921875 342.921875 646.859375 343.5625 C 646.792969 344.199219 646.699219 344.835938 646.574219 345.464844 C 646.449219 346.09375 646.292969 346.71875 646.105469 347.332031 C 645.921875 347.945312 645.703125 348.550781 645.457031 349.144531 C 645.210938 349.738281 644.9375 350.316406 644.632812 350.882812 C 644.332031 351.449219 644 352 643.644531 352.535156 C 643.289062 353.070312 642.90625 353.585938 642.496094 354.082031 C 642.089844 354.578125 641.65625 355.054688 641.203125 355.507812 C 640.75 355.960938 640.273438 356.390625 639.777344 356.800781 C 639.28125 357.207031 638.765625 357.589844 638.230469 357.945312 C 637.695312 358.304688 637.144531 358.632812 636.578125 358.9375 C 636.011719 359.238281 635.429688 359.511719 634.835938 359.757812 C 634.242188 360.003906 633.636719 360.21875 633.023438 360.40625 C 632.40625 360.59375 631.785156 360.75 631.152344 360.875 C 630.523438 361 629.886719 361.09375 629.25 361.15625 C 628.609375 361.21875 627.96875 361.25 627.324219 361.25 C 626.683594 361.25 626.039062 361.21875 625.402344 361.15625 C 624.761719 361.09375 624.125 361 623.496094 360.875 C 622.863281 360.75 622.242188 360.59375 621.628906 360.40625 C 621.011719 360.21875 620.40625 360.003906 619.8125 359.757812 C 619.21875 359.511719 618.640625 359.238281 618.074219 358.9375 C 617.503906 358.632812 616.953125 358.304688 616.421875 357.945312 C 615.886719 357.589844 615.371094 357.207031 614.875 356.800781 C 614.375 356.390625 613.902344 355.960938 613.445312 355.507812 C 612.992188 355.054688 612.558594 354.578125 612.152344 354.082031 C 611.746094 353.585938 611.363281 353.070312 611.003906 352.535156 C 610.648438 352 610.316406 351.449219 610.015625 350.882812 C 609.710938 350.316406 609.4375 349.738281 609.191406 349.144531 C 608.945312 348.550781 608.730469 347.945312 608.542969 347.332031 C 608.355469 346.71875 608.199219 346.09375 608.074219 345.464844 C 607.949219 344.835938 607.855469 344.199219 607.792969 343.5625 C 607.730469 342.921875 607.695312 342.28125 607.695312 341.640625 C 607.695312 340.996094 607.730469 340.355469 607.792969 339.714844 C 607.855469 339.078125 607.949219 338.441406 608.074219 337.8125 C 608.199219 337.183594 608.355469 336.558594 608.542969 335.945312 C 608.730469 335.332031 608.945312 334.726562 609.191406 334.132812 C 609.4375 333.539062 609.710938 332.960938 610.015625 332.394531 C 610.316406 331.828125 610.648438 331.277344 611.003906 330.742188 C 611.363281 330.207031 611.746094 329.695312 612.152344 329.195312 C 612.558594 328.699219 612.992188 328.226562 613.445312 327.769531 C 613.902344 327.316406 614.375 326.886719 614.875 326.476562 C 615.371094 326.070312 615.886719 325.6875 616.421875 325.332031 C 616.953125 324.976562 617.503906 324.644531 618.074219 324.34375 C 618.640625 324.039062 619.21875 323.765625 619.8125 323.519531 C 620.40625 323.273438 621.011719 323.058594 621.628906 322.871094 C 622.242188 322.683594 622.863281 322.527344 623.496094 322.402344 C 624.125 322.277344 624.761719 322.183594 625.402344 322.121094 C 626.039062 322.058594 626.683594 322.027344 627.324219 322.027344 C 627.96875 322.027344 628.609375 322.058594 629.25 322.121094 C 629.886719 322.183594 630.523438 322.277344 631.152344 322.402344 C 631.785156 322.527344 632.40625 322.683594 633.023438 322.871094 C 633.636719 323.058594 634.242188 323.273438 634.835938 323.519531 C 635.429688 323.765625 636.011719 324.039062 636.578125 324.34375 C 637.144531 324.644531 637.695312 324.976562 638.230469 325.332031 C 638.765625 325.6875 639.28125 326.070312 639.777344 326.476562 C 640.273438 326.886719 640.75 327.316406 641.203125 327.769531 C 641.65625 328.226562 642.089844 328.699219 642.496094 329.195312 C 642.90625 329.695312 643.289062 330.207031 643.644531 330.742188 C 644 331.277344 644.332031 331.828125 644.632812 332.394531 C 644.9375 332.960938 645.210938 333.539062 645.457031 334.132812 C 645.703125 334.726562 645.921875 335.332031 646.105469 335.945312 C 646.292969 336.558594 646.449219 337.183594 646.574219 337.8125 C 646.699219 338.441406 646.792969 339.078125 646.859375 339.714844 C 646.921875 340.355469 646.953125 340.996094 646.953125 341.640625 Z M 646.953125 341.640625 " fill-opacity="1" fill-rule="nonzero"/><path fill="#511815" d="M 635.492188 333.667969 C 639.542969 338.601562 638.847656 345.816406 633.910156 349.863281 C 628.972656 353.914062 621.753906 353.214844 617.699219 348.28125 C 613.648438 343.347656 614.34375 336.132812 619.285156 332.085938 C 624.160156 328.101562 631.441406 328.796875 635.492188 333.667969 Z M 635.492188 333.667969 " fill-opacity="1" fill-rule="nonzero"/><path fill="#ffd487" d="M 715.902344 345.941406 L 707.542969 363.023438 L 667.148438 408.132812 L 618.082031 405.09375 L 603.519531 398.832031 L 635.050781 323.417969 L 709.0625 318.105469 L 712.925781 319.9375 Z M 715.902344 345.941406 " fill-opacity="1" fill-rule="nonzero"/><path fill="#a53aff" d="M 709.0625 318.105469 C 709 318.292969 708.9375 318.484375 708.8125 318.671875 C 706.65625 323.480469 703.050781 327.785156 698.363281 330.1875 C 693.679688 332.59375 687.855469 332.972656 683.042969 330.695312 C 679.496094 328.984375 676.519531 325.886719 672.65625 325.0625 C 665.945312 323.671875 660.058594 329.492188 653.410156 331.074219 C 646.507812 332.71875 639.417969 329.113281 634.984375 323.480469 L 649.230469 289.445312 Z M 709.0625 318.105469 " fill-opacity="1" fill-rule="nonzero"/><path fill="#ff9172" d="M 707.542969 363.023438 L 675.128906 429.707031 L 618.082031 405.09375 C 618.652344 402.816406 619.472656 400.667969 620.738281 398.703125 C 624.792969 392.25 633.847656 388.582031 640.558594 392.316406 C 645.558594 395.097656 649.296875 401.550781 654.929688 400.667969 C 658.980469 400.035156 661.453125 395.605469 661.894531 391.554688 C 662.273438 387.445312 661.324219 383.332031 661.640625 379.21875 C 662.148438 372.957031 665.628906 367.261719 670.1875 362.960938 C 678.609375 354.988281 692.347656 351.824219 702.097656 358.089844 C 704.253906 359.351562 706.023438 361.0625 707.542969 363.023438 Z M 707.542969 363.023438 " fill-opacity="1" fill-rule="nonzero"/><path fill="#ffd82a" d="M 625.363281 364.476562 C 625.296875 369.539062 627.640625 374.855469 632.011719 377.449219 C 635.492188 379.472656 639.859375 379.597656 643.785156 378.523438 C 646.699219 377.699219 649.675781 375.992188 650.5625 373.144531 C 651.320312 370.742188 650.496094 368.085938 650.433594 365.554688 C 650.308594 360.492188 653.601562 355.496094 658.285156 353.660156 C 660.945312 352.582031 664.175781 352.394531 666.011719 350.179688 C 668.667969 347.015625 666.328125 341.890625 662.84375 339.742188 C 657.335938 336.261719 650.054688 337.398438 643.976562 339.804688 C 634.226562 343.535156 625.488281 353.597656 625.363281 364.476562 Z M 625.363281 364.476562 " fill-opacity="1" fill-rule="nonzero"/><path fill="#ffd82a" d="M 725.589844 326.011719 L 715.902344 345.941406 C 715.332031 345.308594 714.636719 344.738281 713.875 344.296875 C 711.851562 343.15625 709.378906 342.585938 708.050781 340.691406 C 707.355469 339.675781 707.164062 338.476562 707.039062 337.273438 C 706.53125 331.644531 708.621094 324.429688 712.925781 320 Z M 725.589844 326.011719 " fill-opacity="1" fill-rule="nonzero"/></svg>