<svg xmlns="http://www.w3.org/2000/svg" xmlns:xlink="http://www.w3.org/1999/xlink" width="270.8" zoomAndPan="magnify" viewBox="0 0 270.8 323.9" height="323.9" preserveAspectRatio="xMidYMid meet" version="1.0"><defs><clipPath id="52edd9ba9f"><path d="M 584.753906 345 L 591 345 L 591 352 L 584.753906 352 Z M 584.753906 345 " clip-rule="nonzero"/></clipPath><clipPath id="b7d326b539"><path d="M 849 345 L 855.503906 345 L 855.503906 352 L 849 352 Z M 849 345 " clip-rule="nonzero"/></clipPath></defs>
<g transform="matrix(1, 0, 0, 1, -584.753915, -243.024586)">
<path fill="#a06322" d="M 720.722656 486.582031 C 774.523438 486.582031 818.128906 504.578125 818.128906 526.78125 C 818.128906 548.972656 774.523438 566.972656 720.722656 566.972656 C 666.925781 566.972656 623.316406 548.972656 623.316406 526.78125 C 623.316406 504.578125 666.925781 486.582031 720.722656 486.582031 " fill-opacity="1" fill-rule="nonzero"/><path fill="#ebe4de" d="M 795.847656 521.324219 C 795.847656 536.257812 761.363281 548.359375 720.722656 548.359375 C 680.085938 548.359375 645.597656 536.257812 645.597656 521.324219 L 647.140625 477.90625 C 647.140625 456.878906 680.085938 443.140625 720.722656 443.140625 C 761.363281 443.140625 794.304688 456.878906 794.304688 477.90625 L 795.851562 521.324219 " fill-opacity="1" fill-rule="nonzero"/><path fill="#d3cdc6" d="M 720.722656 548.359375 C 680.085938 548.359375 645.597656 536.257812 645.597656 521.324219 L 647.113281 478.640625 C 654.175781 491 685.082031 500.3125 720.722656 500.3125 C 756.371094 500.3125 787.273438 491 794.339844 478.640625 L 795.851562 521.324219 C 795.851562 536.257812 761.363281 548.359375 720.722656 548.359375 " fill-opacity="1" fill-rule="nonzero"/><path fill="#d5b360" d="M 721.265625 300.425781 C 721.265625 300.425781 736.097656 244.5 730.019531 243.050781 C 723.945312 241.605469 721.265625 300.425781 721.265625 300.425781 " fill-opacity="1" fill-rule="nonzero"/><path fill="#d5b360" d="M 720.175781 307.566406 C 720.175781 307.566406 705.351562 363.484375 711.429688 364.9375 C 717.503906 366.382812 720.175781 307.566406 720.175781 307.566406 " fill-opacity="1" fill-rule="nonzero"/><path fill="#d5b360" d="M 724.296875 304.539062 C 724.296875 304.539062 780.273438 319.351562 781.726562 313.28125 C 783.171875 307.210938 724.296875 304.539062 724.296875 304.539062 " fill-opacity="1" fill-rule="nonzero"/><path fill="#d5b360" d="M 717.152344 303.453125 C 717.152344 303.453125 661.175781 288.640625 659.722656 294.710938 C 658.277344 300.777344 717.152344 303.453125 717.152344 303.453125 " fill-opacity="1" fill-rule="nonzero"/><path fill="#d5b360" d="M 722.863281 306.902344 C 722.863281 306.902344 751.964844 356.917969 757.285156 353.652344 C 762.601562 350.382812 722.863281 306.902344 722.863281 306.902344 " fill-opacity="1" fill-rule="nonzero"/><path fill="#d5b360" d="M 718.578125 301.085938 C 718.578125 301.085938 689.484375 251.066406 684.164062 254.335938 C 678.839844 257.601562 718.578125 301.085938 718.578125 301.085938 " fill-opacity="1" fill-rule="nonzero"/><path fill="#d5b360" d="M 717.808594 306.132812 C 717.808594 306.132812 675.125 345.222656 671.019531 340.523438 C 666.910156 335.816406 717.808594 306.132812 717.808594 306.132812 " fill-opacity="1" fill-rule="nonzero"/><path fill="#d5b360" d="M 723.640625 301.855469 C 723.640625 301.855469 766.324219 262.765625 770.429688 267.46875 C 774.535156 272.171875 723.640625 301.855469 723.640625 301.855469 " fill-opacity="1" fill-rule="nonzero"/><path fill="#d5b360" d="M 722.3125 301.605469 C 722.3125 301.605469 751.796875 266.257812 747.902344 263.175781 C 744.011719 260.09375 722.3125 301.605469 722.3125 301.605469 " fill-opacity="1" fill-rule="nonzero"/><path fill="#d5b360" d="M 719.128906 306.382812 C 719.128906 306.382812 689.652344 341.730469 693.539062 344.816406 C 697.429688 347.898438 719.128906 306.382812 719.128906 306.382812 " fill-opacity="1" fill-rule="nonzero"/><path fill="#d5b360" d="M 723.117188 305.585938 C 723.117188 305.585938 758.496094 335.042969 761.582031 331.152344 C 764.667969 327.261719 723.117188 305.585938 723.117188 305.585938 " fill-opacity="1" fill-rule="nonzero"/><path fill="#d5b360" d="M 718.332031 302.40625 C 718.332031 302.40625 682.949219 272.945312 679.867188 276.839844 C 676.777344 280.730469 718.332031 302.40625 718.332031 302.40625 " fill-opacity="1" fill-rule="nonzero"/><path fill="#d5b360" d="M 721.292969 306.808594 C 721.292969 306.808594 725.457031 352.628906 730.390625 352.0625 C 735.328125 351.492188 721.292969 306.808594 721.292969 306.808594 " fill-opacity="1" fill-rule="nonzero"/><path fill="#d5b360" d="M 720.15625 301.179688 C 720.15625 301.179688 715.984375 255.355469 711.050781 255.925781 C 706.113281 256.5 720.15625 301.179688 720.15625 301.179688 " fill-opacity="1" fill-rule="nonzero"/><path fill="#d5b360" d="M 717.910156 304.558594 C 717.910156 304.558594 673.988281 318.421875 672.609375 313.65625 C 671.230469 308.890625 717.910156 304.558594 717.910156 304.558594 " fill-opacity="1" fill-rule="nonzero"/><path fill="#d5b360" d="M 723.539062 303.429688 C 723.539062 303.429688 767.453125 289.566406 768.839844 294.335938 C 770.21875 299.101562 723.539062 303.429688 723.539062 303.429688 " fill-opacity="1" fill-rule="nonzero"/><path fill="#d5b360" d="M 670.394531 268.550781 C 672.113281 268.550781 673.503906 269.941406 673.503906 271.65625 C 673.503906 273.375 672.113281 274.765625 670.394531 274.765625 C 668.675781 274.765625 667.277344 273.375 667.277344 271.65625 C 667.277344 269.941406 668.675781 268.550781 670.394531 268.550781 " fill-opacity="1" fill-rule="nonzero"/><path fill="#d5b360" d="M 761.742188 255.925781 C 763.046875 255.925781 764.101562 256.984375 764.101562 258.289062 C 764.101562 259.59375 763.046875 260.652344 761.742188 260.652344 C 760.425781 260.652344 759.371094 259.59375 759.371094 258.289062 C 759.371094 256.984375 760.425781 255.925781 761.742188 255.925781 " fill-opacity="1" fill-rule="nonzero"/><path fill="#d5b360" d="M 776.777344 298.617188 C 778.085938 298.617188 779.148438 299.675781 779.148438 300.980469 C 779.148438 302.285156 778.085938 303.347656 776.777344 303.347656 C 775.472656 303.347656 774.410156 302.285156 774.410156 300.980469 C 774.410156 299.675781 775.472656 298.617188 776.777344 298.617188 " fill-opacity="1" fill-rule="nonzero"/><path fill="#d5b360" d="M 737.796875 346.1875 C 739.101562 346.1875 740.164062 347.25 740.164062 348.554688 C 740.164062 349.859375 739.101562 350.914062 737.796875 350.914062 C 736.488281 350.914062 735.433594 349.859375 735.433594 348.554688 C 735.433594 347.25 736.488281 346.1875 737.796875 346.1875 " fill-opacity="1" fill-rule="nonzero"/><path fill="#d5b360" d="M 689.890625 349.488281 C 691.195312 349.488281 692.257812 350.550781 692.257812 351.847656 C 692.257812 353.160156 691.195312 354.222656 689.890625 354.222656 C 688.582031 354.222656 687.519531 353.160156 687.519531 351.847656 C 687.519531 350.550781 688.582031 349.488281 689.890625 349.488281 " fill-opacity="1" fill-rule="nonzero"/><path fill="#d5b360" d="M 667.570312 324.15625 C 668.875 324.15625 669.929688 325.214844 669.929688 326.519531 C 669.929688 327.824219 668.875 328.878906 667.570312 328.878906 C 666.261719 328.878906 665.199219 327.824219 665.199219 326.519531 C 665.199219 325.214844 666.261719 324.15625 667.570312 324.15625 " fill-opacity="1" fill-rule="nonzero"/><path fill="#d5b360" d="M 702.332031 252.207031 C 703.640625 252.207031 704.695312 253.265625 704.695312 254.574219 C 704.695312 255.878906 703.640625 256.9375 702.332031 256.9375 C 701.027344 256.9375 699.964844 255.878906 699.964844 254.574219 C 699.964844 253.265625 701.027344 252.207031 702.332031 252.207031 " fill-opacity="1" fill-rule="nonzero"/><path fill="#d5b360" d="M 646.113281 353.789062 C 646.113281 353.789062 636.238281 296.78125 630.113281 297.996094 C 623.988281 299.210938 646.113281 353.789062 646.113281 353.789062 " fill-opacity="1" fill-rule="nonzero"/><path fill="#d5b360" d="M 648.101562 360.730469 C 648.101562 360.730469 657.976562 417.734375 664.097656 416.519531 C 670.230469 415.300781 648.101562 360.730469 648.101562 360.730469 " fill-opacity="1" fill-rule="nonzero"/><path fill="#d5b360" d="M 650.582031 356.261719 C 650.582031 356.261719 707.640625 346.402344 706.425781 340.277344 C 705.210938 334.160156 650.582031 356.261719 650.582031 356.261719 " fill-opacity="1" fill-rule="nonzero"/><path fill="#d5b360" d="M 643.636719 358.25 C 643.636719 358.25 586.574219 368.117188 587.792969 374.242188 C 589.007812 380.359375 643.636719 358.25 643.636719 358.25 " fill-opacity="1" fill-rule="nonzero"/><path fill="#d5b360" d="M 650.269531 359.011719 C 650.269531 359.011719 697.597656 392.347656 701.066406 387.15625 C 704.542969 381.96875 650.269531 359.011719 650.269531 359.011719 " fill-opacity="1" fill-rule="nonzero"/><path fill="#d5b360" d="M 643.945312 355.507812 C 643.945312 355.507812 596.621094 322.171875 593.148438 327.363281 C 589.671875 332.542969 643.945312 355.507812 643.945312 355.507812 " fill-opacity="1" fill-rule="nonzero"/><path fill="#d5b360" d="M 645.355469 360.417969 C 645.355469 360.417969 622.875 413.730469 617.179688 411.167969 C 611.488281 408.609375 645.355469 360.417969 645.355469 360.417969 " fill-opacity="1" fill-rule="nonzero"/><path fill="#d5b360" d="M 648.863281 354.101562 C 648.863281 354.101562 671.34375 300.785156 677.035156 303.347656 C 682.730469 305.910156 648.863281 354.101562 648.863281 354.101562 " fill-opacity="1" fill-rule="nonzero"/><path fill="#d5b360" d="M 647.558594 354.417969 C 647.558594 354.417969 659.59375 310.011719 654.773438 308.832031 C 649.949219 307.652344 647.558594 354.417969 647.558594 354.417969 " fill-opacity="1" fill-rule="nonzero"/><path fill="#d5b360" d="M 646.660156 360.09375 C 646.660156 360.09375 634.621094 404.507812 639.445312 405.6875 C 644.269531 406.867188 646.660156 360.09375 646.660156 360.09375 " fill-opacity="1" fill-rule="nonzero"/><path fill="#d5b360" d="M 649.949219 357.707031 C 649.949219 357.707031 694.398438 369.734375 695.582031 364.917969 C 696.761719 360.09375 649.949219 357.707031 649.949219 357.707031 " fill-opacity="1" fill-rule="nonzero"/><path fill="#d5b360" d="M 644.269531 356.8125 C 644.269531 356.8125 599.816406 344.785156 598.636719 349.601562 C 597.453125 354.417969 644.269531 356.8125 644.269531 356.8125 " fill-opacity="1" fill-rule="nonzero"/><path fill="#d5b360" d="M 648.796875 359.582031 C 648.796875 359.582031 671.722656 399.488281 675.964844 396.910156 C 680.210938 394.339844 648.796875 359.582031 648.796875 359.582031 " fill-opacity="1" fill-rule="nonzero"/><path fill="#d5b360" d="M 645.417969 354.9375 C 645.417969 354.9375 622.496094 315.027344 618.253906 317.605469 C 614.007812 320.179688 645.417969 354.9375 645.417969 354.9375 " fill-opacity="1" fill-rule="nonzero"/><path fill="#d5b360" d="M 644.785156 358.945312 C 644.785156 358.945312 610.660156 389.847656 607.414062 386.089844 C 604.167969 382.332031 644.785156 358.945312 644.785156 358.945312 " fill-opacity="1" fill-rule="nonzero"/><path fill="#d5b360" d="M 649.433594 355.566406 C 649.433594 355.566406 683.554688 324.671875 686.804688 328.429688 C 690.046875 332.1875 649.433594 355.566406 649.433594 355.566406 " fill-opacity="1" fill-rule="nonzero"/><g clip-path="url(#52edd9ba9f)"><path fill="#d5b360" d="M 587.863281 345.730469 C 589.582031 345.730469 590.976562 347.125 590.976562 348.839844 C 590.976562 350.554688 589.582031 351.949219 587.863281 351.949219 C 586.144531 351.949219 584.753906 350.554688 584.753906 348.839844 C 584.753906 347.125 586.144531 345.730469 587.863281 345.730469 " fill-opacity="1" fill-rule="nonzero"/></g><path fill="#d5b360" d="M 665.300781 296.261719 C 666.613281 296.261719 667.667969 297.320312 667.667969 298.625 C 667.667969 299.933594 666.613281 300.992188 665.300781 300.992188 C 663.992188 300.992188 662.9375 299.933594 662.9375 298.625 C 662.9375 297.320312 663.992188 296.261719 665.300781 296.261719 " fill-opacity="1" fill-rule="nonzero"/><path fill="#d5b360" d="M 696.792969 328.800781 C 698.101562 328.800781 699.164062 329.855469 699.164062 331.160156 C 699.164062 332.464844 698.101562 333.523438 696.792969 333.523438 C 695.496094 333.523438 694.433594 332.464844 694.433594 331.160156 C 694.433594 329.855469 695.496094 328.800781 696.792969 328.800781 " fill-opacity="1" fill-rule="nonzero"/><path fill="#d5b360" d="M 681.226562 388.277344 C 682.535156 388.277344 683.59375 389.335938 683.59375 390.644531 C 683.59375 391.949219 682.535156 393.007812 681.226562 393.007812 C 679.917969 393.007812 678.863281 391.949219 678.863281 390.644531 C 678.863281 389.335938 679.917969 388.277344 681.226562 388.277344 " fill-opacity="1" fill-rule="nonzero"/><path fill="#d5b360" d="M 639.066406 411.238281 C 640.371094 411.238281 641.429688 412.300781 641.429688 413.605469 C 641.429688 414.910156 640.371094 415.964844 639.066406 415.964844 C 637.757812 415.964844 636.695312 414.910156 636.695312 413.605469 C 636.695312 412.300781 637.757812 411.238281 639.066406 411.238281 " fill-opacity="1" fill-rule="nonzero"/><path fill="#d5b360" d="M 608.199219 397.515625 C 609.503906 397.515625 610.566406 398.574219 610.566406 399.878906 C 610.566406 401.1875 609.503906 402.238281 608.199219 402.238281 C 606.894531 402.238281 605.832031 401.1875 605.832031 399.878906 C 605.832031 398.574219 606.894531 397.515625 608.199219 397.515625 " fill-opacity="1" fill-rule="nonzero"/><path fill="#d5b360" d="M 609.757812 317.640625 C 611.066406 317.640625 612.125 318.699219 612.125 320.007812 C 612.125 321.304688 611.066406 322.367188 609.757812 322.367188 C 608.453125 322.367188 607.394531 321.304688 607.394531 320.007812 C 607.394531 318.699219 608.453125 317.640625 609.757812 317.640625 " fill-opacity="1" fill-rule="nonzero"/><path fill="#d5b360" d="M 794.136719 353.789062 C 794.136719 353.789062 804.015625 296.78125 810.144531 297.996094 C 816.265625 299.210938 794.136719 353.789062 794.136719 353.789062 " fill-opacity="1" fill-rule="nonzero"/><path fill="#d5b360" d="M 792.148438 360.730469 C 792.148438 360.730469 782.277344 417.734375 776.148438 416.519531 C 770.027344 415.300781 792.148438 360.730469 792.148438 360.730469 " fill-opacity="1" fill-rule="nonzero"/><path fill="#d5b360" d="M 789.671875 356.261719 C 789.671875 356.261719 732.613281 346.402344 733.828125 340.277344 C 735.042969 334.160156 789.671875 356.261719 789.671875 356.261719 " fill-opacity="1" fill-rule="nonzero"/><path fill="#d5b360" d="M 796.617188 358.25 C 796.617188 358.25 853.679688 368.117188 852.464844 374.242188 C 851.25 380.359375 796.617188 358.25 796.617188 358.25 " fill-opacity="1" fill-rule="nonzero"/><path fill="#d5b360" d="M 789.984375 359.011719 C 789.984375 359.011719 742.65625 392.347656 739.179688 387.15625 C 735.710938 381.96875 789.984375 359.011719 789.984375 359.011719 " fill-opacity="1" fill-rule="nonzero"/><path fill="#d5b360" d="M 796.308594 355.507812 C 796.308594 355.507812 843.636719 322.171875 847.105469 327.363281 C 850.582031 332.542969 796.308594 355.507812 796.308594 355.507812 " fill-opacity="1" fill-rule="nonzero"/><path fill="#d5b360" d="M 794.894531 360.417969 C 794.894531 360.417969 817.382812 413.730469 823.074219 411.167969 C 828.761719 408.609375 794.894531 360.417969 794.894531 360.417969 " fill-opacity="1" fill-rule="nonzero"/><path fill="#d5b360" d="M 791.390625 354.101562 C 791.390625 354.101562 768.910156 300.785156 763.21875 303.347656 C 757.523438 305.910156 791.390625 354.101562 791.390625 354.101562 " fill-opacity="1" fill-rule="nonzero"/><path fill="#d5b360" d="M 792.699219 354.417969 C 792.699219 354.417969 780.660156 310.011719 785.480469 308.832031 C 790.3125 307.652344 792.699219 354.417969 792.699219 354.417969 " fill-opacity="1" fill-rule="nonzero"/><path fill="#d5b360" d="M 793.59375 360.09375 C 793.59375 360.09375 805.632812 404.507812 800.804688 405.6875 C 795.980469 406.867188 793.59375 360.09375 793.59375 360.09375 " fill-opacity="1" fill-rule="nonzero"/><path fill="#d5b360" d="M 790.304688 357.707031 C 790.304688 357.707031 745.855469 369.734375 744.671875 364.917969 C 743.492188 360.09375 790.304688 357.707031 790.304688 357.707031 " fill-opacity="1" fill-rule="nonzero"/><path fill="#d5b360" d="M 795.980469 356.8125 C 795.980469 356.8125 840.4375 344.785156 841.617188 349.601562 C 842.800781 354.417969 795.980469 356.8125 795.980469 356.8125 " fill-opacity="1" fill-rule="nonzero"/><path fill="#d5b360" d="M 791.457031 359.582031 C 791.457031 359.582031 768.535156 399.488281 764.289062 396.910156 C 760.042969 394.339844 791.457031 359.582031 791.457031 359.582031 " fill-opacity="1" fill-rule="nonzero"/><path fill="#d5b360" d="M 794.835938 354.9375 C 794.835938 354.9375 817.757812 315.027344 822.003906 317.605469 C 826.25 320.179688 794.835938 354.9375 794.835938 354.9375 " fill-opacity="1" fill-rule="nonzero"/><path fill="#d5b360" d="M 795.472656 358.945312 C 795.472656 358.945312 829.59375 389.847656 832.835938 386.089844 C 836.085938 382.332031 795.472656 358.945312 795.472656 358.945312 " fill-opacity="1" fill-rule="nonzero"/><path fill="#d5b360" d="M 790.820312 355.566406 C 790.820312 355.566406 756.691406 324.671875 753.449219 328.429688 C 750.207031 332.1875 790.820312 355.566406 790.820312 355.566406 " fill-opacity="1" fill-rule="nonzero"/><g clip-path="url(#b7d326b539)"><path fill="#d5b360" d="M 852.390625 345.730469 C 854.109375 345.730469 855.503906 347.125 855.503906 348.839844 C 855.503906 350.554688 854.109375 351.949219 852.390625 351.949219 C 850.671875 351.949219 849.28125 350.554688 849.28125 348.839844 C 849.28125 347.125 850.671875 345.730469 852.390625 345.730469 " fill-opacity="1" fill-rule="nonzero"/></g><path fill="#d5b360" d="M 774.949219 296.261719 C 776.253906 296.261719 777.316406 297.320312 777.316406 298.625 C 777.316406 299.929688 776.253906 300.988281 774.949219 300.988281 C 773.648438 300.988281 772.585938 299.929688 772.585938 298.625 C 772.585938 297.320312 773.648438 296.261719 774.949219 296.261719 " fill-opacity="1" fill-rule="nonzero"/><path fill="#d5b360" d="M 743.453125 328.800781 C 744.765625 328.800781 745.820312 329.855469 745.820312 331.160156 C 745.820312 332.464844 744.765625 333.523438 743.453125 333.523438 C 742.152344 333.523438 741.089844 332.464844 741.089844 331.160156 C 741.089844 329.855469 742.152344 328.800781 743.453125 328.800781 " fill-opacity="1" fill-rule="nonzero"/><path fill="#d5b360" d="M 759.027344 388.277344 C 760.335938 388.277344 761.390625 389.335938 761.390625 390.644531 C 761.390625 391.949219 760.335938 393.007812 759.027344 393.007812 C 757.722656 393.007812 756.660156 391.949219 756.660156 390.644531 C 756.660156 389.335938 757.722656 388.277344 759.027344 388.277344 " fill-opacity="1" fill-rule="nonzero"/><path fill="#d5b360" d="M 801.1875 411.238281 C 802.496094 411.238281 803.558594 412.300781 803.558594 413.605469 C 803.558594 414.910156 802.496094 415.964844 801.1875 415.964844 C 799.882812 415.964844 798.820312 414.910156 798.820312 413.605469 C 798.820312 412.300781 799.882812 411.238281 801.1875 411.238281 " fill-opacity="1" fill-rule="nonzero"/><path fill="#d5b360" d="M 832.054688 397.515625 C 833.359375 397.515625 834.421875 398.574219 834.421875 399.878906 C 834.421875 401.1875 833.359375 402.238281 832.054688 402.238281 C 830.746094 402.238281 829.6875 401.1875 829.6875 399.878906 C 829.6875 398.574219 830.746094 397.515625 832.054688 397.515625 " fill-opacity="1" fill-rule="nonzero"/><path fill="#d5b360" d="M 830.496094 317.640625 C 831.800781 317.640625 832.863281 318.699219 832.863281 320.007812 C 832.863281 321.3125 831.800781 322.371094 830.496094 322.371094 C 829.1875 322.371094 828.125 321.3125 828.125 320.007812 C 828.125 318.699219 829.1875 317.640625 830.496094 317.640625 " fill-opacity="1" fill-rule="nonzero"/><path fill="#a06322" d="M 722.367188 453.882812 C 722.367188 454.816406 721.730469 455.574219 720.933594 455.574219 C 720.144531 455.574219 719.5 454.816406 719.5 453.882812 L 719.5 313.691406 C 719.5 312.761719 720.144531 312.007812 720.933594 312.007812 C 721.722656 312.007812 722.367188 312.761719 722.367188 313.691406 L 722.367188 453.882812 " fill-opacity="1" fill-rule="nonzero"/><path fill="#a06322" d="M 696.3125 460.4375 C 696.601562 461.074219 696.257812 461.855469 695.542969 462.1875 C 694.816406 462.511719 693.996094 462.265625 693.703125 461.636719 L 649.867188 366.195312 C 649.574219 365.566406 649.921875 364.785156 650.640625 364.453125 C 651.363281 364.121094 652.1875 364.367188 652.472656 365.003906 L 696.3125 460.4375 " fill-opacity="1" fill-rule="nonzero"/><path fill="#a06322" d="M 743.9375 460.4375 C 743.652344 461.074219 743.996094 461.855469 744.71875 462.1875 C 745.4375 462.511719 746.257812 462.265625 746.550781 461.636719 L 790.382812 366.195312 C 790.683594 365.566406 790.332031 364.785156 789.613281 364.453125 C 788.890625 364.121094 788.070312 364.367188 787.777344 365.003906 L 743.9375 460.4375 " fill-opacity="1" fill-rule="nonzero"/>
</g>
</svg>