<svg xmlns="http://www.w3.org/2000/svg" xmlns:xlink="http://www.w3.org/1999/xlink" width="1920" zoomAndPan="magnify" viewBox="0 0 1440 809.999993" height="1080" preserveAspectRatio="xMidYMid meet" version="1.0"><defs><clipPath id="db749801a4"><path d="M 528.285156 243 L 911.535156 243 L 911.535156 567 L 528.285156 567 Z M 528.285156 243 " clip-rule="nonzero"/></clipPath></defs><g clip-path="url(#db749801a4)"><path fill="#000000" d="M 663.105469 425.800781 L 663.105469 522.796875 C 663.105469 527.769531 659.074219 531.8125 654.09375 531.8125 C 649.121094 531.8125 645.082031 527.777344 645.082031 522.796875 L 645.082031 425.800781 C 645.082031 420.824219 649.113281 416.785156 654.09375 416.785156 C 659.066406 416.785156 663.105469 420.816406 663.105469 425.800781 Z M 818.671875 438.765625 C 813.695312 438.765625 809.660156 442.800781 809.660156 447.78125 L 809.660156 500.8125 C 809.660156 505.789062 813.6875 509.828125 818.671875 509.828125 C 823.652344 509.828125 827.683594 505.796875 827.683594 500.8125 L 827.683594 447.78125 C 827.683594 442.800781 823.644531 438.765625 818.671875 438.765625 Z M 687.011719 429.582031 C 682.039062 429.582031 678 433.613281 678 438.597656 L 678 509.992188 C 678 514.96875 682.03125 519.007812 687.011719 519.007812 C 691.992188 519.007812 696.023438 514.976562 696.023438 509.992188 L 696.023438 438.597656 C 696.015625 433.621094 691.984375 429.582031 687.011719 429.582031 Z M 621.175781 438.765625 C 616.203125 438.765625 612.164062 442.800781 612.164062 447.78125 L 612.164062 500.8125 C 612.164062 505.789062 616.195312 509.828125 621.175781 509.828125 C 626.148438 509.828125 630.1875 505.796875 630.1875 500.8125 L 630.1875 447.78125 C 630.1875 442.800781 626.15625 438.765625 621.175781 438.765625 Z M 719.921875 381.59375 C 714.949219 381.59375 710.910156 385.628906 710.910156 390.613281 L 710.910156 557.992188 C 710.910156 562.96875 714.941406 567.007812 719.921875 567.007812 C 724.898438 567.007812 728.933594 562.972656 728.933594 557.992188 L 728.933594 390.613281 C 728.933594 385.628906 724.902344 381.59375 719.921875 381.59375 Z M 752.839844 433.121094 C 747.867188 433.121094 743.828125 437.152344 743.828125 442.136719 L 743.828125 506.457031 C 743.828125 511.433594 747.859375 515.472656 752.839844 515.472656 C 757.816406 515.472656 761.851562 511.441406 761.851562 506.457031 L 761.851562 442.136719 C 761.851562 437.152344 757.816406 433.121094 752.839844 433.121094 Z M 785.753906 425.492188 C 780.777344 425.492188 776.738281 429.527344 776.738281 434.507812 L 776.738281 522.796875 C 776.738281 527.769531 780.769531 531.8125 785.753906 531.8125 C 790.726562 531.8125 794.765625 527.777344 794.765625 522.796875 L 794.765625 434.507812 C 794.765625 429.53125 790.734375 425.492188 785.753906 425.492188 Z M 875.617188 401.761719 L 875.617188 398.757812 C 875.617188 312.871094 805.769531 243 719.921875 243 C 634.074219 243 564.234375 312.871094 564.234375 398.757812 L 564.234375 401.761719 C 544.230469 403.105469 528.367188 419.804688 528.367188 440.15625 L 528.367188 494.15625 C 528.367188 515.378906 545.625 532.644531 566.839844 532.644531 L 573.101562 532.644531 C 578.003906 532.644531 581.976562 528.671875 581.976562 523.765625 L 581.976562 398.765625 C 581.976562 322.667969 643.859375 260.757812 719.921875 260.757812 C 795.988281 260.757812 857.867188 322.667969 857.867188 398.765625 L 857.867188 523.773438 C 857.867188 528.671875 861.835938 532.652344 866.742188 532.652344 L 873.007812 532.652344 C 894.222656 532.652344 911.480469 515.386719 911.480469 494.160156 L 911.480469 440.160156 C 911.480469 419.804688 895.617188 403.105469 875.617188 401.761719 Z M 875.617188 401.761719 " fill-opacity="1" fill-rule="nonzero"/></g></svg>