<svg xmlns="http://www.w3.org/2000/svg" xmlns:xlink="http://www.w3.org/1999/xlink" width="385.4" zoomAndPan="magnify" viewBox="0 0 385.4 320.9" height="320.9" preserveAspectRatio="xMidYMid meet" version="1.0"><defs><clipPath id="a48e95bc25"><path d="M 526.566406 389 L 884 389 L 884 567 L 526.566406 567 Z M 526.566406 389 " clip-rule="nonzero"/></clipPath></defs>
<g transform="matrix(1, 0, 0, 1, -526.929695, -246.232288)">
<path fill="#f8e55b" d="M 856.195312 493.578125 C 866.535156 482.5 892.578125 454.328125 898.847656 439.574219 C 902.679688 430.570312 905.375 421.382812 907.136719 412.148438 C 880.421875 427.777344 846.960938 431.125 816.28125 418.082031 C 764.785156 396.1875 740.796875 336.714844 762.695312 285.234375 C 767.8125 273.210938 775.035156 262.753906 783.679688 253.964844 C 728.871094 250.738281 675.492188 281.5625 652.777344 334.964844 C 646.617188 349.4375 642.675781 378.125 641.78125 392.980469 " fill-opacity="1" fill-rule="nonzero"/><path fill="#565fa0" d="M 834.304688 471.191406 C 830.476562 471.191406 826.785156 471.773438 823.257812 472.777344 C 820.945312 442.808594 797.3125 419.242188 768.449219 419.242188 C 751.808594 419.242188 736.925781 427.105469 726.832031 439.476562 C 714.511719 413.125 688.953125 394.964844 659.332031 394.964844 C 618.515625 394.964844 585.355469 429.382812 584.078125 472.328125 C 581.050781 471.601562 577.914062 471.191406 574.679688 471.191406 C 551.195312 471.191406 532.15625 491.371094 532.15625 516.269531 C 532.15625 541.164062 551.195312 561.34375 574.679688 561.34375 C 577.410156 561.34375 831.574219 561.34375 834.304688 561.34375 C 857.785156 561.34375 876.824219 541.164062 876.824219 516.269531 C 876.824219 491.371094 857.785156 471.191406 834.304688 471.191406 Z M 834.304688 471.191406 " fill-opacity="1" fill-rule="nonzero"/><g clip-path="url(#a48e95bc25)"><path fill="#1f212b" d="M 835.359375 567.144531 L 574.824219 567.144531 C 548.414062 567.144531 526.929688 544.511719 526.929688 516.691406 C 526.929688 487.273438 550.976562 463.433594 579.40625 466.476562 C 583.507812 422.992188 617.785156 389.746094 659.777344 389.746094 C 688.273438 389.746094 714.070312 405.234375 728.71875 430.636719 C 739.785156 420.050781 754.203125 414.101562 769.28125 414.101562 C 798.609375 414.101562 823.722656 436.785156 828.765625 466.730469 C 830.976562 466.398438 833.183594 466.226562 835.363281 466.226562 C 861.773438 466.226562 883.261719 488.863281 883.261719 516.6875 C 883.261719 544.507812 861.765625 567.144531 835.359375 567.144531 Z M 574.824219 476.683594 C 554.179688 476.683594 537.386719 494.632812 537.386719 516.691406 C 537.386719 538.75 554.179688 556.695312 574.824219 556.695312 L 835.359375 556.695312 C 856.003906 556.695312 872.800781 538.742188 872.800781 516.691406 C 872.800781 491.257812 850.214844 471.074219 825.707031 478.078125 C 824.199219 478.496094 822.578125 478.234375 821.285156 477.339844 C 820 476.441406 819.183594 475.015625 819.058594 473.453125 C 816.945312 446.03125 795.074219 424.554688 769.277344 424.554688 C 754.835938 424.554688 741.085938 431.253906 731.5625 442.9375 C 730.421875 444.335938 728.628906 445.03125 726.867188 444.820312 C 725.082031 444.601562 723.539062 443.476562 722.773438 441.851562 C 710.761719 416.15625 686.621094 400.199219 659.777344 400.199219 C 621.566406 400.199219 590.695312 432.070312 589.488281 472.757812 C 589.4375 474.335938 588.691406 475.800781 587.433594 476.761719 C 586.1875 477.710938 584.570312 478.058594 583.039062 477.691406 C 580.269531 477.015625 577.503906 476.683594 574.824219 476.683594 Z M 574.824219 476.683594 " fill-opacity="1" fill-rule="nonzero"/></g><path fill="#1f212b" d="M 740.042969 546.242188 L 719.132812 546.242188 C 717.6875 546.242188 716.515625 545.074219 716.515625 543.628906 C 716.515625 542.1875 717.6875 541.015625 719.132812 541.015625 L 740.042969 541.015625 C 741.484375 541.015625 742.65625 542.1875 742.65625 543.628906 C 742.65625 545.074219 741.492188 546.242188 740.042969 546.242188 Z M 708.675781 546.242188 L 703.449219 546.242188 C 702.003906 546.242188 700.835938 545.074219 700.835938 543.628906 C 700.835938 542.1875 702.003906 541.015625 703.449219 541.015625 L 708.675781 541.015625 C 710.117188 541.015625 711.289062 542.1875 711.289062 543.628906 C 711.289062 545.074219 710.125 546.242188 708.675781 546.242188 Z M 698.21875 546.242188 L 567.527344 546.242188 C 566.085938 546.242188 564.914062 545.074219 564.914062 543.628906 C 564.914062 542.1875 566.085938 541.015625 567.527344 541.015625 L 698.21875 541.015625 C 699.664062 541.015625 700.835938 542.1875 700.835938 543.628906 C 700.835938 545.074219 699.667969 546.242188 698.21875 546.242188 Z M 873.621094 481.410156 C 872.34375 481.410156 871.0625 480.945312 870.054688 480.007812 C 867.941406 478.035156 867.824219 474.726562 869.792969 472.621094 C 879.984375 461.699219 888.144531 449.132812 894.039062 435.269531 C 896.164062 430.277344 897.976562 425.078125 899.464844 419.726562 C 872.386719 431.953125 841.914062 432.398438 814.234375 420.625 C 788.042969 409.496094 767.753906 388.832031 757.109375 362.445312 C 746.46875 336.0625 746.742188 307.109375 757.878906 280.929688 C 761.566406 272.257812 766.378906 264.160156 772.25 256.75 C 722.457031 258.132812 677.277344 288.4375 657.570312 334.75 C 651.78125 348.367188 648.394531 362.691406 647.523438 377.304688 C 647.355469 380.1875 644.851562 382.277344 641.992188 382.203125 C 639.105469 382.03125 636.910156 379.554688 637.085938 376.675781 C 638.035156 360.867188 641.6875 345.382812 647.949219 330.652344 C 670.832031 276.875 725.484375 242.949219 783.976562 246.484375 C 786.023438 246.601562 787.808594 247.90625 788.542969 249.824219 C 789.289062 251.730469 788.835938 253.902344 787.398438 255.363281 C 778.867188 264.050781 772.171875 274.027344 767.492188 285.027344 C 757.449219 308.640625 757.199219 334.746094 766.804688 358.539062 C 776.402344 382.335938 794.699219 400.964844 818.316406 411.007812 C 846.488281 422.992188 877.898438 420.933594 904.480469 405.375 C 906.246094 404.339844 908.457031 404.429688 910.136719 405.621094 C 911.808594 406.804688 912.640625 408.851562 912.253906 410.867188 C 910.359375 420.792969 907.464844 430.375 903.644531 439.359375 C 897.269531 454.347656 888.453125 467.941406 877.425781 479.75 C 876.414062 480.859375 875.023438 481.410156 873.621094 481.410156 Z M 873.621094 481.410156 " fill-opacity="1" fill-rule="nonzero"/><path fill="#f8e55b" d="M 589.375 354.152344 L 595.574219 366.707031 L 609.433594 368.71875 L 599.40625 378.488281 L 601.773438 392.285156 L 589.375 385.773438 L 576.980469 392.285156 L 579.347656 378.488281 L 569.320312 368.71875 L 583.179688 366.707031 Z M 589.375 354.152344 " fill-opacity="1" fill-rule="nonzero"/><path fill="#1f212b" d="M 576.980469 394.898438 C 576.4375 394.898438 575.898438 394.730469 575.441406 394.398438 C 574.636719 393.816406 574.234375 392.824219 574.402344 391.839844 L 576.539062 379.398438 L 567.5 370.582031 C 566.785156 369.886719 566.53125 368.847656 566.835938 367.902344 C 567.144531 366.949219 567.96875 366.265625 568.945312 366.121094 L 581.445312 364.304688 L 587.03125 352.980469 C 587.910156 351.207031 590.84375 351.207031 591.714844 352.980469 L 597.304688 364.304688 L 609.808594 366.121094 C 610.792969 366.261719 611.613281 366.949219 611.917969 367.902344 C 612.226562 368.847656 611.96875 369.886719 611.253906 370.582031 L 602.214844 379.398438 L 604.347656 391.847656 C 604.515625 392.828125 604.113281 393.816406 603.304688 394.398438 C 602.507812 394.980469 601.433594 395.058594 600.554688 394.59375 L 589.375 388.722656 L 578.191406 394.601562 C 577.8125 394.804688 577.398438 394.898438 576.980469 394.898438 Z M 589.375 383.15625 C 589.792969 383.15625 590.210938 383.261719 590.585938 383.460938 L 598.296875 387.507812 L 596.828125 378.921875 C 596.6875 378.078125 596.964844 377.214844 597.585938 376.613281 L 603.820312 370.539062 L 595.199219 369.292969 C 594.351562 369.167969 593.609375 368.632812 593.234375 367.867188 L 589.375 360.054688 L 585.523438 367.859375 C 585.144531 368.628906 584.402344 369.160156 583.554688 369.285156 L 574.941406 370.535156 L 581.171875 376.609375 C 581.789062 377.210938 582.070312 378.078125 581.929688 378.921875 L 580.457031 387.503906 L 588.167969 383.453125 C 588.539062 383.261719 588.957031 383.15625 589.375 383.15625 Z M 589.375 383.15625 " fill-opacity="1" fill-rule="nonzero"/><path fill="#f8e55b" d="M 770.890625 455.617188 L 777.089844 468.175781 L 790.949219 470.1875 L 780.921875 479.957031 L 783.285156 493.753906 L 770.890625 487.238281 L 758.496094 493.753906 L 760.863281 479.957031 L 750.835938 470.1875 L 764.695312 468.175781 Z M 770.890625 455.617188 " fill-opacity="1" fill-rule="nonzero"/><path fill="#1f212b" d="M 758.5 496.367188 C 757.957031 496.367188 757.417969 496.199219 756.964844 495.867188 C 756.160156 495.285156 755.757812 494.292969 755.925781 493.316406 L 758.058594 480.867188 L 749.019531 472.050781 C 748.296875 471.363281 748.046875 470.324219 748.347656 469.375 C 748.65625 468.425781 749.476562 467.742188 750.457031 467.59375 L 762.960938 465.78125 L 768.550781 454.457031 C 769.425781 452.679688 772.359375 452.679688 773.234375 454.457031 L 778.820312 465.78125 L 791.320312 467.59375 C 792.304688 467.734375 793.125 468.425781 793.425781 469.375 C 793.734375 470.324219 793.480469 471.363281 792.761719 472.058594 L 783.726562 480.875 L 785.863281 493.316406 C 786.03125 494.296875 785.628906 495.292969 784.824219 495.871094 C 784.019531 496.457031 782.953125 496.539062 782.074219 496.070312 L 770.890625 490.191406 L 759.707031 496.070312 C 759.332031 496.273438 758.917969 496.367188 758.5 496.367188 Z M 756.453125 472.011719 L 762.683594 478.082031 C 763.300781 478.683594 763.582031 479.546875 763.441406 480.394531 L 761.972656 488.980469 L 769.683594 484.929688 C 770.441406 484.53125 771.355469 484.53125 772.113281 484.929688 L 779.824219 488.980469 L 778.351562 480.398438 C 778.210938 479.550781 778.488281 478.683594 779.109375 478.082031 L 785.339844 472.011719 L 776.726562 470.761719 C 775.878906 470.636719 775.136719 470.101562 774.757812 469.335938 L 770.90625 461.527344 L 767.054688 469.335938 C 766.675781 470.101562 765.933594 470.636719 765.089844 470.761719 Z M 717.703125 293.214844 C 716.785156 293.214844 715.894531 292.730469 715.414062 291.871094 C 714.714844 290.605469 715.167969 289.019531 716.429688 288.3125 C 725.277344 283.40625 734.714844 281.136719 744.324219 281.519531 C 745.765625 281.582031 746.886719 282.800781 746.828125 284.242188 C 746.765625 285.679688 745.558594 286.792969 744.105469 286.746094 C 735.390625 286.347656 726.957031 288.445312 718.964844 292.886719 C 718.570312 293.109375 718.136719 293.214844 717.703125 293.214844 Z M 671.351562 374.914062 C 669.949219 374.914062 668.792969 373.8125 668.734375 372.40625 C 668.632812 369.777344 668.636719 367.113281 668.746094 364.421875 C 669.84375 338.175781 681.230469 314.179688 699.207031 300.226562 C 700.335938 299.339844 701.984375 299.539062 702.875 300.6875 C 703.761719 301.828125 703.554688 303.46875 702.414062 304.351562 C 685.632812 317.375 675.003906 339.914062 673.972656 364.636719 C 673.863281 367.1875 673.863281 369.710938 673.964844 372.203125 C 674.023438 373.640625 672.898438 374.859375 671.453125 374.921875 C 671.414062 374.914062 671.382812 374.914062 671.351562 374.914062 Z M 671.351562 374.914062 " fill-opacity="1" fill-rule="nonzero"/>
</g>
</svg>